/* XPM */
static char *_0ed09b3fe884417a38b2b9596b94627PGOOkKWYywl0wDzh[] = {
/* columns rows colors chars-per-pixel */
"64 64 256 2 ",
"   c black",
".  c #0000A8",
"X  c #00A800",
"o  c #00A8A8",
"O  c #A80000",
"+  c #A800A8",
"@  c #A85400",
"#  c #4C4436",
"$  c gray33",
"%  c #5454FC",
"&  c #524A42",
"*  c #5E5246",
"=  c #736352",
"-  c #685D4C",
";  c #FCFC54",
":  c gray99",
">  c #ECECEC",
",  c gainsboro",
"<  c #D0D0D0",
"1  c #C0C0C0",
"2  c #B4B4B4",
"3  c gray66",
"4  c #989898",
"5  c gray55",
"6  c #7C7C7C",
"7  c gray44",
"8  c #646464",
"9  c gray33",
"0  c #484848",
"q  c gray22",
"w  c #2C2C2C",
"e  c #202020",
"r  c #FC0000",
"t  c #EC0000",
"y  c #E00000",
"u  c #D40000",
"i  c #C80000",
"p  c #BC0000",
"a  c #B00000",
"s  c #A40000",
"d  c #980000",
"f  c #880000",
"g  c #7C0000",
"h  c #700000",
"j  c #640000",
"k  c #580000",
"l  c #4C0000",
"z  c #400000",
"x  c #FCD8D8",
"c  c #FCB8B8",
"v  c #FC9C9C",
"b  c #FC7C7C",
"n  c #FC5C5C",
"m  c #FC4040",
"M  c #FC2020",
"N  c #FC0000",
"B  c #FCA85C",
"V  c #FC9840",
"C  c #FC8820",
"Z  c #FC7800",
"A  c #E46C00",
"S  c #CC6000",
"D  c #B45400",
"F  c #9C4C00",
"G  c #FCFCD8",
"H  c #FCFCB8",
"J  c #FCFC9C",
"K  c #FCFC7C",
"L  c #FCF85C",
"P  c #FCF440",
"I  c #FCF420",
"U  c #FCF400",
"Y  c #E4D800",
"T  c #CCC400",
"R  c #B4AC00",
"E  c #9C9C00",
"W  c #848400",
"Q  c #706C00",
"!  c #585400",
"~  c #404000",
"^  c #849C7B",
"/  c #738C6B",
"(  c #6B7B63",
")  c #637352",
"_  c #5A6B52",
"`  c #525A4A",
"'  c #4A5242",
"]  c #425239",
"[  c #394A39",
"{  c #313931",
"}  c #313929",
"|  c #293129",
" . c #293121",
".. c #212921",
"X. c #182118",
"o. c #181818",
"O. c #00FC00",
"+. c #00EC00",
"@. c #00E000",
"#. c #00D400",
"$. c #04C800",
"%. c #04BC00",
"&. c #04B000",
"*. c #04A400",
"=. c #049800",
"-. c #048800",
";. c #047C00",
":. c #047000",
">. c #046400",
",. c #045800",
"<. c #044C00",
"1. c #044000",
"2. c #C8BFB2",
"3. c #A89A85",
"4. c #9A8C77",
"5. c #7CFCF8",
"6. c #5CFCFC",
"7. c #40FCFC",
"8. c #20FCFC",
"9. c #00FCFC",
"0. c #00E4E4",
"q. c #00CCCC",
"w. c #00B4B4",
"e. c #009C9C",
"r. c #008484",
"t. c #007070",
"y. c #005858",
"u. c #004040",
"i. c #94846B",
"p. c #8C7B67",
"a. c #847B63",
"s. c #81735D",
"d. c #7B6B5A",
"f. c #007CCC",
"g. c #006CB4",
"h. c #005C9C",
"j. c #736B5A",
"k. c #736B52",
"l. c #9C9CFC",
"z. c #7C80FC",
"x. c #5C60FC",
"c. c #4040FC",
"v. c #2024FC",
"b. c #0004FC",
"n. c #0000FC",
"m. c #0000EC",
"M. c #0000E0",
"N. c #0000D4",
"B. c #0000C8",
"V. c #0000BC",
"C. c #0000B0",
"Z. c #0000A4",
"A. c #000098",
"S. c #000088",
"D. c #00007C",
"F. c #000070",
"G. c #000064",
"H. c #000058",
"J. c #00004C",
"K. c #000040",
"L. c #282828",
"P. c #FCE034",
"I. c #FCD424",
"U. c #FCCC18",
"Y. c #FCC008",
"T. c #FCB400",
"R. c #B420FC",
"E. c #A800FC",
"W. c #9800E4",
"Q. c #8000CC",
"!. c #7400B4",
"~. c #60009C",
"^. c #500084",
"/. c #440070",
"(. c #340058",
"). c #280040",
"_. c #FCD8FC",
"`. c #FCB8FC",
"'. c #FC9CFC",
"]. c #FC7CFC",
"[. c #FC5CFC",
"{. c #FC40FC",
"}. c #FC20FC",
"|. c #FC00FC",
" X c #E000E4",
".X c #C800CC",
"XX c #B400B4",
"oX c #9C009C",
"OX c #840084",
"+X c #6C0070",
"@X c #580058",
"#X c #400040",
"$X c #FCE8DC",
"%X c #FCE0D0",
"&X c #FCD8C4",
"*X c #FCD4BC",
"=X c #FCCCB0",
"-X c #FCC4A4",
";X c #FCBC9C",
":X c #FCB890",
">X c #FCB080",
",X c #FCA470",
"<X c #FC9C60",
"1X c #F0945C",
"2X c #E88C58",
"3X c #DC8854",
"4X c #D08050",
"5X c #C87C4C",
"6X c #BC7848",
"7X c #B47044",
"8X c #A86840",
"9X c #A0643C",
"0X c #9C6038",
"qX c #905C34",
"wX c #885830",
"eX c #80502C",
"rX c #744C28",
"tX c #6C4824",
"yX c #5C4020",
"uX c #543C1C",
"iX c #483818",
"pX c #403018",
"aX c #382C14",
"sX c #28200C",
"dX c #600064",
"fX c #006464",
"gX c #006060",
"hX c #00001C",
"jX c #00002C",
"kX c #302410",
"lX c #480048",
"zX c #500050",
"xX c #000034",
"cX c gray11",
"vX c #4C4C4C",
"bX c gray36",
"nX c gray25",
"mX c gray19",
"MX c #343434",
"NX c #2E2B22",
"BX c #B8E8E8",
"VX c #9CDCDC",
"CX c #74C8C8",
"ZX c #48C0C0",
"AX c #20B4B4",
"SX c #20B0B0",
"DX c #00A4A4",
"FX c #009898",
"GX c #008C8C",
"HX c #008484",
"JX c #007C7C",
"KX c #007878",
"LX c #007474",
"PX c #007070",
"IX c #006C6C",
"UX c #980088",
/* pixels */
"bX6 $ bX0 0 6 6 7 $ bXnX7 7 7 5 5 6 6 5 6 5 5 5 7 bX6 7 5 5 5 4 4 4 6 5 5 6 4 5 7 7 $ 5 7 7 5 3 3 3 3 5 5 6 5 4 4 5 5 5 5 3 4 6 ",
"uXtXtXuXuXkXiXiXtXiXtXuXuXuXkXiXuXeX6 5 6 6 6 $ q q 7 bX$ $ $ 6 $ bXbX6 6 7 bX6 7 7 bXbXw e $ 7 6 7 bX7 7 7 0 $ bX$ bXbX$ bX$ $ ",
"tXuXuXkXtXuXeXuXtXuXtXtXtXtXiXkXiXeXtX5 5 7 bXkXkXkXuXuXtXiXiXuXeXiXkXuXuXiXtXuXkXkXkXiXiXsXsXkXkXkXkXkXkXkXiXuXkXkXiXiXuXuXiXuX",
"tXtXeXuXtXeXeXuXtXuXuXuXeXuXkXsXkXuXuXeX5 5 0 sXsXkXiXuXtXkXkXeXiXiXiXeXiXuXuXiXuXuXuXiXkXkXiXkXiXiXuXiXiXkXuXuXkXsXkXuXkXkXuXtX",
"tXtXtXtXtXuXeXtXeXuXuXuXuXeXeXiXkXiXuXuXbX7 $ kXsXsXuXuXuXiXtXtXuXuXuXiXkXuXtXuXuXuXuXuXuXtXuXkXtXuXiXiXtXkXiXuXkXsXkXuXuXiXiXiX",
"uXtXeXtXuXuXtXuXuXtXkXiXkXuXuXuXuXiXuX6 5 bX$ kXsXkXkXkXuXiXtXuXuXkXuXuXkXuXuXtXuXtXuXiXuXkXtXkXiXiXkXiXuXuXuXiXkXiXiXkXkXiXuXuX",
"kXiXuXtXuXuXtXuXuXkXuXuXiXiXiXiXkXkXkX5 4 bX0 kXsXsXkXkXiXuXkXuXiXkXiXtXiXuXkXkXuXeXuXuXtXuXuXuXiXkXiXiXkXuXuXuXkXiXkXiXkXkXuXiX",
"kXkXkXkXkXkXiXiXkXkXkXkXiXkXiXiXkXkXiX5 4 7 7 $ iXkXsXsXkXuXsXkXsXsXsXiXtXuXuXkXkXkXuXuXiXkXkXiXiXkXiXuXiXuXkXiXkXsXsXkXkXsXkXkX",
"q q nX$ bX$ 0 0 $ $ 0 nXnX0 bX$ nXe $ 5 3 7 7 5 $ 0 kXkXkXiXkXkXkXkXsXkXkXkXkXkXkXkXkXiXkXkXkXsXkXsXkXkXkXsXsXsXsXsXkXkXkXkXsXsX",
"$ bXbX7 7 7 7 6 6 6 6 6 7 7 5 4 7 7 6 bX6 5 5 5 7 5 6 5 bX0 0 0 $ $ $ $ $ $ bX$ bX$ $ 0 0 nXnXcXcXcXcXcXcXcXcXcXcXcXcXcX0 $ 0 nX",
"0 0 0 0 $ bXbX$ nX0 $ $ bXbX7 $ 0 $ 7 nXbX7 0 7 6 6 6 7 bX5 6 bX5 6 bXbX7 7 7 bX6 6 bX0 0 0 bXcX                    cXq 0 0 nXnX",
"uXuXuXuXkXkXkXkXkXkXkXkXkXsXsXkXkXkXkXkXkXiXkXkXiXuXuXuXiXtXtXtXuXuXuXuXkXkXkXkXkXiXiXiXkX0 $ cX                    cXq 0 0 kXkX",
"uXkXiXeXtXuXtXtXuXtXeXuXuXkXkXiXiXuXuXeXuXkXkXkXkXuXiXiXuXkXiXuXiXiXuXtXkXuXkXkXiXuXkXkXkXsX7 cX      6 5 4 4 5     cXq $ $ kXsX",
"iXtXuXuXeXeXuXtXuXtXtXuXtXuXkXkXuXtXuXuXeXuXkXsXkXkXkXkXeXuXiXiXiXiXtXeXtXuXuXkXuXiXsXsXkXkXbXcX    6 3 2 2 2 3 5   cXq 7 5 uXkX",
"kXuXiXkXuXiXuXtXeXuXuXtXuXsXkXiXkXiXuXtXeXuXkXsXuXiXkXsXiXuXuXiXkXkXuXuXuXiXtXiXiXkXsXsXsXsXnXcX    2 1 1 1 1 2 3   cXq 6 5 tXuX",
"kXkXkXkXkXsXiXuXtXuXkXiXuXiXkXkXkXkXkXuXuXtXkXkXkXkXiXiXuXkXkXiXiXkXuXuXtXuXiXuXkXsXsXsXsXsXbXcX    1 < 4 < 1 6 3   cXq bX4 7 eX",
"iXkXkXsXkXkXkXkXkXkXiXuXkXiXkXkXkXkXkXkXiXkXsXkXsXkXkXsXkXiXuXiXkXkXkXuXuXuXkXkXsXsXsXsXsXsX$ cX      cX6 cXq 2 5   cXq 7 4 5 eX",
"6 7 $ $ 7 6 6 7 6 6 7 4 5 5 5 5 7 7 6 6 6 5 7 bXbXbXbXbX0 bX6 7 0 0 $ $ bX0 sXkXsXsXsXsXsXe $ cX    1 4 0 4 1 1 6   cXq 6 3 4 6 ",
"bX6 7 7 0 bXbX6 bX7 6 6 7 6 6 5 5 5 $ $ $ $ nXe nXe e q nXnX$ $ $ 5 6 bX6 bXbX7 6 6 4 5 5 4 $ cX      6 2 1 q bXcX  cXq 6 5 5 7 ",
"uXiXiXuXuXkXuXuXuXuXuXtXuXuX6 5 4 7 bXcXcXcXcXcXcXcXcXcXcXcXcXcX$ 5 5 6 6 0 6 bX7 7 7 5 $ 0 bXcX      bX5 3 6       cXq bX7 7 uX",
"kXiXiXkXkXsXsXkXsXkXuXkXkXuXtXtX6 4 bXcX                    cXq nX6 3 6 7 0 7 6 6 6 7 bX5 6 bXcXq q q mXe e e e e mXq q 7 uXkXkX",
"kXkXtXeXkXkXsXsXsXkXsXsXkXkXuXiXtX4 $ cX                    cXq nX6 7 kXkXkXkXkXsXkXiXkXuXtXiXtXuXkXkXkXuXiXiXkXiXkXiXsXkXkXiXuX",
"uXsXkXuXkXkXiXkXsXkXsXkXkXiXiXkXiX4 $ cX      1 3 4 6 7     cXq 7 3 5 qXkXkXkXsXkXkXkXkXkXuXtXeXtXiXkXkXkXkXiXuXkXkXkXkXkXkXsXkX",
"uXuXtXkXuXuXuXkXsXsXkXuXkXkXiXuXqX3 $ cX    3 4 4 4 4 6 7   cXq $ 5 uXeXtXkXiXiXiXkXsXkXkXkXuXiXiXiXsXsXuXkXsXkXkXkXkXkXkXsXsXsX",
"uXuXkXkXtXkXiXuXeXkXkXkXiXuXkXkXtX5 bXcX    3 3 1 1 1 4 7   cXq $ 5 kXkX0XqXtXuXeXiXsXsXkXkXeXeXiXiXkXsXkXkXkXkXeXkXkXkXkXkXkXuX",
"eXeXuXeXeXiXsXkXuXtXuXiXuXeXuXtXeX4 nXcX    4 < < 4 < 1 7   cXq q 7 kXuXuXtXqXuXeXuXkXkXsXkXiX7XeXeXkXkXkXkXkXkXeXuXuXiXkXkXsXsX",
"qXuXkXuXtXkXkXeXiXkXkXkXiXuXtXtXuXbXbXcX    4 q cX6 cXq 7   cXq cX0 kXkXeXqXtXeXeXtXiXkXsXsXsXiXqXeXuXuXuXuXuXuXuXkXiXuXkXkXuXuX",
"eXtXiXiXtXeXuXiXkXuXuXiXuXkXuXuXuX7 7 cX    4 1 < 0 4 1 4   cXq nX6 kXsXuXeXtXtX0XiXkXkXkXiXkXuXeXeXqXiXuXiXkXeXtXuXuXeXiXkXkXtX",
"uXiXiXuXuXkXiXeXkXuXiXiXkXuXeXeXqX3 $ cX      q 4 4 6 q     cXq 7 3 iXsXuXeXiXqXtXqXqXqXiXiXiXiXuXtXiXiXuXiXkXiXuXuXuXuXeX0XkXuX",
"kXkXkXkXkXkXsXkXkXuXkXiXiXiXuXuX5 5 bXcX      bX6 6 bXq     cXq 7 3 nXsXkXkXkXtXtXeXtXeXtXkXkXkXiXuXkXiXkXkXuXuXkXkXkXsXiXiXsXkX",
"kXkXkXkXkXkXsXsXkXkXkXuXuXuXtXeX5 6 nXcXq q q mXe e e e e mXq q 7 3 5 6 eXuXtXqXeXtXtXeXeXuXtXtXuXeXuXkXuXkXuXeXiXuXiXiXuXuXuXuX",
"6 6 7 6 7 7 7 0 $ 0 0 7 bXbX5 6 6 6 nXnXnX$ bX7 bX$ $ bX$ bXnXnX$ 5 4 3 4 5 5 4 5 4 3 3 3 4 3 4 3 3 4 7 3 5 6 3 3 3 3 3 3 3 3 4 ",
"7 6 6 7 7 $ q w nXq w q 0 bXbXbX7 7 bX$ 0 0 7 7 6 6 6 7 $ 6 5 3 4 4 5 6 4 4 4 3 5 $ 6 5 6 4 5 5 3 4 7 4 7 bXbXbX7 $ 6 6 5 6 5 5 ",
"uXuXeXqXtXuXuXkXkXkXkXkXkXkXsXkXkXkXkXkXkXkXkXkXkXkXkXkXkXkXkXkXsX6 4 5 4 5 4 4 bXiXiXkXuXiXiXkXiXkXkXkXkXkXkXkXsXkXkXkXsXsXiXkX",
"tXeXtXeXeXeXtXtXuXkXiXkXsXkXkXkXkXkXkXkXkXkXkXkXkXkXkXkXkXkXkXuXkXkX6 4 6 5 2 6 kXkXkXiXuXtXuXtXeXtXtXtXiXiXiXuXiXiXiXuXuXuXiXkX",
"uXuXuXeXtXtXtXeXeXtXtXtXtXtXkXkXkXkXkXkXkXkXkXkXkXkXkXkXkXiXkXiXkXkX7 4 $ 0 5 0XtXuXuXuXuXuXtXuXuXuXeXuXuXuXuXtXuXuXiXeXtXeXtXtX",
"uXuXuXeXuXtXuXtXeXtXeXtXtXeXeXiXkXkXkXkXkXkXkXkXkXkXkXkXkXkXkXuXuXkX7 2 4 5 7 tXtXuXtXtXiXuXuXiXuXuXuXuXuXiXkXuXiXtXuXtXuXeXtXtX",
"kXuXuXtXeXeXtXeXeXeXeXeXtXqXeXuXkXkXkXkXkXkXkXkXkXkXkXkXiXkXkXiXkXuX6 2 3 3 eXuXuXuXuXuXuXtXtXiXuXtXiXkXuXuXuXkXuXuXtXeXkXqXeXeX",
"kXiXuXkXuXtXuXtXqXeXqXeXeXeX0X0XeXtXuXkXkXkXkXkXsXkXkXuXuXkXkXkXkXuX7 2 3 4 tXuXkXuXiXkXtXuXuXtXuXuXtXtXuXtXkXkXkXtXtXtXkXkXuXuX",
"kXkXiXuXuXtXuXiXeXtXeXeXtXeX0X0XqXqXeXeXuXkXkXkXsXkXkXkXiXiXiXkXkXkX0 2 3 4 iXkXkXkXkXkXkXkXkXuXtXiXeXtXiXkXsXkXiXuXtXuXkXuXiXkX",
"kXiXiXkXkXtXuXuXuXtXuXeXeXeXqXqXqXeXqXeXtXiXkXkXkXiXiXiXiXkXkXiXkXkX$ 2 2 5 uXkXkXkXkXkXsXkXkXiXuXuXuXiXsXsXsXsXkXkXkXkXkXiXkXiX",
"kXkXkXiXiXiXuXuXiXuXkXkXuXeXqXeXeXtXtXeXuXiXuXsXiXiXiXkXkXkXkXkXkXuXbX4 2 3 7 iXuXeXuXkXkXkXsXkXiXuXuXkXkXsXsXsXkXkXkXsXsXkXkXkX",
"kXkXkXkXuXuXuXuXiXuXkXsXkXuXeXeXeXqXeXeXtXiXkXuXuXtXuXiXsXkXsXkXuXuX7 4 3 5 3 3 4 5 4 5 $ $ $ $ nXe nXe e q nXnX$ $ $ 0 $ kXsXsX",
"7 7 6 4 3 4 4 5 5 5 5 7 5 6 6 6 7 7 7 6 6 7 bX7 5 5 5 5 7 bX7 7 7 $ 7 bXbX6 5 6 4 5 5 7 bXcXcXcXcXcXcXcXcXcXcXcXcXcX$ $ bXbX$ $ ",
"$ $ bX7 6 4 3 5 5 3 6 4 5 3 cXcXcXcXcXcXcXcXcXcXcXcXcX5 5 5 6 7 7 bX0 bX0 bX7 bX7 5 5 4 bXcX                    cXq nX0 q q $ $ ",
"sXsXsXsXkXkXkXkXuXtX7 $ bX6 cX                    cXq bXbXkXkXkXiXkXkXkXkXkXkXkXkXkXkXbX$ cX                    cXq nXuXkXkXsXsX",
"kXkXkXkXkXiXkXkXuXkXuXkXkX7 cX                    cXq $ uXiXuXkXuXqXeXkXiXkXkXkXkXsXsXsX$ cX      5 4 4 5 6     cXq 7 kXsXkXsXkX",
"iXkXiXuXuXeXtXtXeXuXuXiXkX7 cX                    cXq $ uXuXiXkXuXuXuXuXuXuXkXsXsXsXsXsX$ cX    5 3 2 2 2 3 6   cXq $ nXkXsXkXsX",
"kXkXuXuXuXeXeXeXeXuXtXiXsX6 cX      3 3 4 5 6     cXq $ uXuXkXkXeXtXtX0XqXiXkXsXsXsXsXsXbXcX    3 2 1 1 1 1 2   cXq $ bXkXkXkXsX",
"kXkXkXuXtXuXeXqXtXuXtXuXkX7 cX    3 1 1 2 3 6 7   cXq bXuXtXtXuXuXuXtXtXeXkXsXsXsXsXsXsXnXcX    3 6 1 < 4 < 1   cXq 5 6 $ sXsXsX",
"kXkXkXiXuXuXtXtXtXtXuXkXsX0 cX    2 1 1 1 2 3 6   cXq nXkXkXtXtXuXtXuXuXeXiXsXkXsXsXsXsXbXcX    5 2 q cX6 cX    cXq 6 6 $ iXkXkX",
"kXkXkXsXkXuXiXuXuXuXiXkXkX$ cX    1 4 < 1 bX6 4   cXq bXkXuXuXuXuXuXuXuXeXiXkXkXsXsXsXsX7 cX    6 1 1 4 0 4 1   cXq 5 5 $ kXkXkX",
"sXsXsXkXsXkXsXkXuXiXkXsXsXbXcX      6 cXq 3 4 7   cXq 7 sXkXiXuXkXkXuXuXtXtXuXkXsXkXsXsX$ cX    cXbXq 1 2 6     cXq 7 4 7 uXuXsX",
"bXbX7 6 7 eXuXiXtXuXuXiXbX7 cX    1 0 4 1 1 1     cXq $ 7 bX6 7 7 7 7 5 5 6 7 kXkXkXuXkXbXcX        6 3 5 bX    cXq 7 5 4 3 5 7 ",
"4 5 5 7 5 4 4 5 bX6 5 4 5 4 cX      2 1 6 bX      cXq bX4 5 5 6 4 3 4 3 3 3 6 5 6 6 4 6 nXcXq q q mXe e e e e mXq q 7 6 6 5 6 4 ",
"q 0 bX$ $ $ $ 7 $ 0 bX7 7 5 cXq q q mXe e e e e mXq q 4 4 4 3 3 3 4 3 3 4 3 4 4 3 5 5 4 nXnXnX$ bX7 bX$ $ bX$ bXnXnX$ 0 $ bXbX0 ",
"uXiXuXiXiXkXkXkXkXkXbX7 bXnX$ bX7 bX$ $ bX$ bX7 7 7 7 bX7 7 4 4 4 4 5 5 5 5 7 7 7 eXuXiXuXtXtXtXuXuXuXiXuXtXuXiXiXiXkXkXsXkXiXkX",
"qXtXuXiXuXiXkXkXkXuXuXeXuXeXkXiXiXiXiXiXiXiXiXiXuXuXkXsXiXbX4 6 uXiXkXiXuXiXiXiXiXuXuXiXuXuXtXtXiXtXiXkXiXtXiXiXuXuXiXuXkXkXuXuX",
"uXeXeXuXeXuXuXuXtXuXuXeXuXiXuXuXtXuXtXtXtXuXuXkXeXiXkXkXkX0 4 2 6 tXuXuXtXtXuXtXtXtXuXuXtXiXtXtXkXuXiXuXuXuXiXiXiXiXuXuXiXiXuXuX",
"uXtXeXtXeXtXtXtXuXiXuXtXiXeXuXkXuXuXuXtXeXuXuXuXkXkXkXkXiXq 7 2 7 uXuXuXuXuXtXeXeXtXuXuXuXuXtXtXiXuXtXuXiXtXiXtXuXiXkXkXuXtXuXtX",
"uXuXuXuXuXeXtXuXiXuXiXtXiXuXtXkXiXuXiXiXuXuXuXuXiXkXkXuXbX7 4 3 4 uXuXtXtXtXtXuXtXuXiXuXuXiXuXtXuXuXtXtXuXuXkXeXuXuXiXkXkXkXuXtX",
"uXtXtXtXiXiXiXuXkXiXiXuXiXkXeXuXuXiXuXuXuXkXkXkXtXbXbX$ 7 5 4 4 5 tXuXtXeXtXuXiXkXkXkXkXkXkXkXkXkXuXiXiXiXiXkXiXuXkXkXiXiXkXuXtX",
"7 6 5 5 4 5 5 6 5 6 7 7 7 7 5 7 5 6 7 4 3 6 5 6 5 6 bX$ $ 7 bX$ 4 7 tXeXuXtXtXeX7 5 5 5 5 5 5 bXbXbXbXiXkXkXkXuXuXuXkXuXuXiXuXeX",
"5 4 3 4 5 3 7 bX7 4 4 5 5 7 3 5 4 3 3 4 3 3 5 5 5 5 3 5 5 4 6 7 6 5 5 4 5 3 3 3 4 4 4 3 3 3 3 4 3 3 2 3 4 3 3 4 5 4 6 4 3 4 6 bX"
};
