/* XPM */
static char *_9c27adce51a4c46d9012653464a353dSHa4Pm0oYOzaj0s2[] = {
/* columns rows colors chars-per-pixel */
"64 64 256 2 ",
"   c black",
".  c #0000A8",
"X  c #00A800",
"o  c #00A8A8",
"O  c #A80000",
"+  c #A800A8",
"@  c #A85400",
"#  c #4C4436",
"$  c gray33",
"%  c #5454FC",
"&  c #524A42",
"*  c #5E5246",
"=  c #736352",
"-  c #685D4C",
";  c #FCFC54",
":  c gray99",
">  c #ECECEC",
",  c gainsboro",
"<  c #D0D0D0",
"1  c #C0C0C0",
"2  c #B4B4B4",
"3  c gray66",
"4  c #989898",
"5  c gray55",
"6  c #7C7C7C",
"7  c gray44",
"8  c #646464",
"9  c gray33",
"0  c #484848",
"q  c gray22",
"w  c #2C2C2C",
"e  c #202020",
"r  c #FC0000",
"t  c #EC0000",
"y  c #E00000",
"u  c #D40000",
"i  c #C80000",
"p  c #BC0000",
"a  c #B00000",
"s  c #A40000",
"d  c #980000",
"f  c #880000",
"g  c #7C0000",
"h  c #700000",
"j  c #640000",
"k  c #580000",
"l  c #4C0000",
"z  c #400000",
"x  c #FCD8D8",
"c  c #FCB8B8",
"v  c #FC9C9C",
"b  c #FC7C7C",
"n  c #FC5C5C",
"m  c #FC4040",
"M  c #FC2020",
"N  c #FC0000",
"B  c #FCA85C",
"V  c #FC9840",
"C  c #FC8820",
"Z  c #FC7800",
"A  c #E46C00",
"S  c #CC6000",
"D  c #B45400",
"F  c #9C4C00",
"G  c #FCFCD8",
"H  c #FCFCB8",
"J  c #FCFC9C",
"K  c #FCFC7C",
"L  c #FCF85C",
"P  c #FCF440",
"I  c #FCF420",
"U  c #FCF400",
"Y  c #E4D800",
"T  c #CCC400",
"R  c #B4AC00",
"E  c #9C9C00",
"W  c #848400",
"Q  c #706C00",
"!  c #585400",
"~  c #404000",
"^  c #849C7B",
"/  c #738C6B",
"(  c #6B7B63",
")  c #637352",
"_  c #5A6B52",
"`  c #525A4A",
"'  c #4A5242",
"]  c #425239",
"[  c #394A39",
"{  c #313931",
"}  c #313929",
"|  c #293129",
" . c #293121",
".. c #212921",
"X. c #182118",
"o. c #181818",
"O. c #00FC00",
"+. c #00EC00",
"@. c #00E000",
"#. c #00D400",
"$. c #04C800",
"%. c #04BC00",
"&. c #04B000",
"*. c #04A400",
"=. c #049800",
"-. c #048800",
";. c #047C00",
":. c #047000",
">. c #046400",
",. c #045800",
"<. c #044C00",
"1. c #044000",
"2. c #C8BFB2",
"3. c #A89A85",
"4. c #9A8C77",
"5. c #7CFCF8",
"6. c #5CFCFC",
"7. c #40FCFC",
"8. c #20FCFC",
"9. c #00FCFC",
"0. c #00E4E4",
"q. c #00CCCC",
"w. c #00B4B4",
"e. c #009C9C",
"r. c #008484",
"t. c #007070",
"y. c #005858",
"u. c #004040",
"i. c #94846B",
"p. c #8C7B67",
"a. c #847B63",
"s. c #81735D",
"d. c #7B6B5A",
"f. c #007CCC",
"g. c #006CB4",
"h. c #005C9C",
"j. c #736B5A",
"k. c #736B52",
"l. c #9C9CFC",
"z. c #7C80FC",
"x. c #5C60FC",
"c. c #4040FC",
"v. c #2024FC",
"b. c #0004FC",
"n. c #0000FC",
"m. c #0000EC",
"M. c #0000E0",
"N. c #0000D4",
"B. c #0000C8",
"V. c #0000BC",
"C. c #0000B0",
"Z. c #0000A4",
"A. c #000098",
"S. c #000088",
"D. c #00007C",
"F. c #000070",
"G. c #000064",
"H. c #000058",
"J. c #00004C",
"K. c #000040",
"L. c #282828",
"P. c #FCE034",
"I. c #FCD424",
"U. c #FCCC18",
"Y. c #FCC008",
"T. c #FCB400",
"R. c #B420FC",
"E. c #A800FC",
"W. c #9800E4",
"Q. c #8000CC",
"!. c #7400B4",
"~. c #60009C",
"^. c #500084",
"/. c #440070",
"(. c #340058",
"). c #280040",
"_. c #FCD8FC",
"`. c #FCB8FC",
"'. c #FC9CFC",
"]. c #FC7CFC",
"[. c #FC5CFC",
"{. c #FC40FC",
"}. c #FC20FC",
"|. c #FC00FC",
" X c #E000E4",
".X c #C800CC",
"XX c #B400B4",
"oX c #9C009C",
"OX c #840084",
"+X c #6C0070",
"@X c #580058",
"#X c #400040",
"$X c #FCE8DC",
"%X c #FCE0D0",
"&X c #FCD8C4",
"*X c #FCD4BC",
"=X c #FCCCB0",
"-X c #FCC4A4",
";X c #FCBC9C",
":X c #FCB890",
">X c #FCB080",
",X c #FCA470",
"<X c #FC9C60",
"1X c #F0945C",
"2X c #E88C58",
"3X c #DC8854",
"4X c #D08050",
"5X c #C87C4C",
"6X c #BC7848",
"7X c #B47044",
"8X c #A86840",
"9X c #A0643C",
"0X c #9C6038",
"qX c #905C34",
"wX c #885830",
"eX c #80502C",
"rX c #744C28",
"tX c #6C4824",
"yX c #5C4020",
"uX c #543C1C",
"iX c #483818",
"pX c #403018",
"aX c #382C14",
"sX c #28200C",
"dX c #600064",
"fX c #006464",
"gX c #006060",
"hX c #00001C",
"jX c #00002C",
"kX c #302410",
"lX c #480048",
"zX c #500050",
"xX c #000034",
"cX c gray11",
"vX c #4C4C4C",
"bX c gray36",
"nX c gray25",
"mX c gray19",
"MX c #343434",
"NX c #2E2B22",
"BX c #B8E8E8",
"VX c #9CDCDC",
"CX c #74C8C8",
"ZX c #48C0C0",
"AX c #20B4B4",
"SX c #20B0B0",
"DX c #00A4A4",
"FX c #009898",
"GX c #008C8C",
"HX c #008484",
"JX c #007C7C",
"KX c #007878",
"LX c #007474",
"PX c #007070",
"IX c #006C6C",
"UX c #980088",
/* pixels */
"  sXsXsXsXsXkXkXaXaXkXkXkXpXpXaXkXpXNXaXMXpXpXpXkXpXpXkXsXsXo.  sXsXkXkXkXpXkXpXpXaXpXpXpXkXkXsXsX    sXsXkXaXpXMXMXkXkXkXsX    ",
"  sXNXNXiXiXG # iXiXq MXpXuXyXuX# # # yXyX# yXuX# # # # NXkXo.  sXkXmXpX# # yXyX# tXyX* # # pXNXsXo.  sXaXmXq # G # # iXq NXsX  ",
"  sX# B U G G C     U U U U U U U U U U U U U U U U U U U U U U U U U U U U U U U U U U U U U U U U U U U     G G U U B } uXsXsX",
"  aX* S S S U F tX      F F F F F F F F F F F F F F F F F F F F F F F F F F F F F F F F F F F F F F F F     tXF B S S S } # pXsX",
"  aX* - q kXC kXkXi u y     w w w w w w w w w w w w w w w w w w w w w w w w w w w w w w w w w w w w     f f } } S iX} # # * aXsX",
"  kX* * uXMXMXiXiXt r r t p a d g k z z z z z z k g d 1   1       5   5 h k z z z l j g O i u p p d g k k h iXuX} # # # # & kXo.",
"  NX* * MXiXiXiXuXt r r t y u i O d g h h g g d s a i >   >       <   1 O d g g f d O p   :       <   d g h iXiX# q # # uX* aXsX",
"  # * * uXq MXuXuXt r r t y u i O d g h g f f d O p u >   >       <   < a d f f d s p   t   :   >   a   g j } MXpX# # # # # pXsX",
"  iX# pXiXMXMXpXiXt r r t y y i a d f g f d d O a i u >   >       ,   < p O d d d a p ,   r 6   7 i   4 h j L.# # # # yXyX# kX  ",
"  kXiXiXpXpXmXmXpXt r r t y y i a s d f d d s a p i u >   >       ,   < p a s s O a p   > 7 7   7 nX1   h j aXMXiXuXiXiXuXMXkXsX",
"  sXMXMXpXaXpXNXkXt r r t y y u p O d d d s O a p i u >   >       ,   < p a O O a a p                   g j o.NXNXNXNXNXNXMXkXsX",
"  kXMXMXNXNXNXNXkXt r r t y y u i a O s s O O a p i u >   >       ,   < p a O O O a a   , 0 $   vXw 1   g h o.NXNXNXNXNXaXmXkXsX",
"  sXmXmXNXNXNXkXo.t r r t y y u i p a O O O O a p p i >   >       ,   < p a O O O O a <   r 0   0 i   4 g j sXkXNXNXkXNXNXNXsXsX",
"  sXkXsXe sXsXo.o.t r r t y y u i p a O O O O a a p i >   >       ,   < p a O O O O a   y   :   >   a   g j sXsXkXkXsXkXkXsXo.  ",
"          sXsXsXo.t r r t y y u i p a O O O O O a a p ,   ,       ,   < p a O O O a a p   :       <   s f k   o.o.o.    o.      ",
"                  y r r t y y u i p a O O O O O O a p ,   ,       ,   < p a O O a a p i y r r t t u p O f k                     ",
"sXsXsXsXsXo.      y r t t y y u i p a O O O O O O a p ,   ,       ,   < p a O O a p p i t r r t t u i a f k     o.NXo.kXsXkXsXo.",
"pXpXpXaXkXo.    o.y r t t y y u i p a O O O O O O a p ,   ,       ,   < p a O O a p p i t r r t t u i a f k kXkXe } cXiX# uXaXsX",
"# tXyXuXpXsXo.  sXy t t t y y u i p a O O O O O a a p ,   , > > > ,   < p a O O a a p i t r r t t u p O f k # rXmX} NX# & yXMXkX",
"# * * * uXsX  o.pXu t t t y y u i p a O O O O a a p < > >           , < 1 a O s O a p i t r r t t u p s f j q & # NXpXpXyXq } NX",
"q # # # uXkXsX  NXi y y t y y u i p a O O O O a 1 <                       3 3 d d s a i t r r t t u p s f j } # } sXyXpXuX# # iX",
"aXuXpXMXpXkXsXo.pXO y u t y y u i p a O O O 3 3         > > > > > , ,         4 5 d O p y r r t t u p s f j } MXaXNXpXiXyXMXpXNX",
"NXNXpXiXMXo.  o.NXd i u y y y u i p a O O 3         , >               < 1         4 s p y r r t t u p s f j } # uXiXNX# # MXNXkX",
"NXpXpXiXMXsX    NXd p u y y y u i p a O 3       1 <     > > > > > , ,     3 4       2 p y r r t t u p O f j } # pXpXNX# # q pXkX",
"NXiXiXpXpXkXsX  aXs p u t y y u i a O 3       3     , > > > > 4 > , , < 1     4       < y r r t t u i a f h } # NXNXMXuXtXmXpXaX",
"e NXpXiXq kXsX  pXO p y t y y u p O d 4     3     < , > > > 7   8 , , < 1 3     4     < t r r t t u i a d g L.MXpXpXiXyXtX# pXpX",
"NXpXiXiXiXkXsX  pXp i y t y y i a s 4     4     1 < , > > 7       5 , < 1 3 3     2     > r r t t u i a d f L.MXMXpXNXpXuXtXuX# ",
"MX# MXmXNXo.    NXi u r t y y i a d 5     4   3 1 < , > 7       q , , < 1 3 3 3   1     > M r t t u i p s f o.mXmXNXNXNXMXq q q ",
"mXNXNXNXNXo.    sXu r r t y u i O 4     5   4 3 1 < , 7       q > , L.0 1 3 3 3 3   <     : r t t u i p O d o.kXkXNXNXNXNXNXNXMX",
"NXNXkXsXsXo.    sX, : : > > > > 2 4     5   4 3 1 < $       nX> > $     q 3 3 3 3   <     : : > > , < 1 3 4 sXsXsXsXkXNXNXsXkXNX",
"kXkXkXsXsX      sX                4   6   4 3 3 1 < L.      6 > bX        w 3 3 3 1   ,   :                 sXsXsXsXsXkXsXsXkXkX",
"o.o.o.o.          < : : > > > > 1     5   4 3 3 8 < , 8       mX            L.3 3 1   ,     : > > , < 1 3 3   o.  o.      o.o.o.",
"o.o.o.o.o.                      1     4   3 3 w   cX, > 8           8 cX      L.3 1   ,     :                 o.            o.o.",
"pXpXpXpXpXNXkXo.o.              <     3   3 $       L.> > q       w , <         bX1   ,     :               o.NXo.    o.NXNXpXpX",
"* * * & uXiXpXo.sX              <     3   3 3 w       nX6           vX< 1     L.3 1   ,     :               L.MXkXsX  pX# # & # ",
"* * # # # uXiXe   > : : > > > > <     4   3 3 3 q             mX      nX1 3 $ 3 3 1   ,     : > > < 1 3 6 6 # * sX    NXMX# # & ",
"* & # # # uXiXkX                  2   4   4 3 3 1 0         8 > 6         3 3 3 3 1   ,   :                 & * kX    NXMX# # & ",
"# # uXiXMX# # kX  > : : > > > > 1 3     5   4 3 1 < $     8 > > q       q 3 3 3 3   <     : : > > < 1 4 7 7 # * aXsX  aXpX# # q ",
"uXuXiXiXiXuXuXNX  t r r t y y i a 3     6   4 3 1 < , 7 nX> > q       0 1 3 3 3 3   <     : r t t i a d f h } # kXsX  aXiXuX# # ",
"iXuXiXiXuXiXpXkX  t r r t y y i a d 6     5   5 1 < , > > > nX      $ < 1 3 3 3   3     > M r t t u p s f g aXpXkXsX  aXpX# # MX",
"MX# yXiXpXMXMXpX  t r r t y y i a d 6     5     1 < , > > 4       bX, < 1 3 3     1     > r r t t u p a d f kXpXNXsX  kXpXpXq MX",
"MXq q MXMXiXpXkX  t r r t y y i a d f 6     4     < , > > > 7   8 , , < 1 4     3     , t r r t t u i p s f L.MXNXsX  kXaXNXNXkX",
"MXMXMXMXMXiXpXkX  t r r t y y u p s d 5       3     , > > > > 4 > , , < 1     3       , t r r t t u i p O d L.MXNXsX  kXaXNXNXsX",
"iX# q pXpXMXMXaX  t r r t y y u p a d d 4       1 <     > > > > > , ,     3 3       < u t r r t t u i p O f kXNXkXsX  kXNX# # # ",
"& yXyXtX# q pXkX  t r r t y y u i p O s s 3         , >               < 1         1 i u t r r t t u i p s g o.NXo.    aXpXiX# & ",
"uXyXuXiXiXiXpXkX  y r r t y y u i p a O O O 3 3         > > > > > , ,         3 3 p i u t r r t t u i a d g o.NXo.    aXiXpX# # ",
"# uXiXiXuXq MXsX  y r r t y y u i p a O O O O a 1 <                       4 4 s a p i u t r r t t u i a d g sXo.      NXMXiXq MX",
"# iXuX# & uXpXo.  y r r t y y u i p a O O O O a p i , > >           < 1 3 d d d a p i u t r r t t u i O d h           NXMXpX# & ",
"# iX# # * uXpXo.  y r r t y y u i p a O O O O a p i u >   > > > > <   2 d f f d O p i u t r r t t u i O f h sXsXo.    NXMXiX& - ",
"tXMX# & # pXmXkX  y r r t y y u i p a O O O O a p i u >   >       <   2 d f f d O p i u t r r t t u i a d h sXsXo.  o.NXMXiX& - ",
"mXNX# # MXNXNXsX  y r r t y y u i p a O O O O a p i u >   >       <   3 f g g d O p i u t r r t t u i a d h kXpXsX    NXMXpXMXMX",
"NXmXmXNXNXNXkXo.  y r r t y y u i p a O O O O a p i u >   >       <   3 f g g d O p i u t r r t t u i a d h pXiXkXsX  sXNXNXNXNX",
"kXsXkXsXo.o.o.    t t r t y y u i p a O O O O a p i u >   >       <   3 g h h f s p i u t r r t t u i a d g } # kXo.  o.sXsXsXsX",
"                  t y t t y y u i p a O O O O a p i u >   >       <   3 g j h f s p i u t r r t t i p O d g } # aXsX      o.o.o.",
"o.o.o.o.o.        u y y y y y u i p a O O O O a p i u >   >       <   3 g j h g s p i u t r r t t i a s f g aXpXkXo.        o.o.",
"sXsXsXsXsXo.      i u i y y y u i p a O O O O a p i u >   >       <   3 f h h f d a i u t r r t t p O d f g aXiXsX        o.sXsX",
"& # # yXuXNXNXo.  p i i u y y u i p a O O O O a p i u >   >       <   2 f h h f d a i u t r r t y p s d f g L.MXNXsX  o.sXpXyXtX",
"& * q MX# # pXkX  s p p i u y u i a O s O O s O a i u >   >       <   3 g j h g d a i u t r r t y p d f g g L.MXo.    o.NXMX# & ",
"q # q q uX# # NX  f O a p p y i p O s d s s d s O p i >   >       <   3 g j j g f O p i t r r t y a d g h g L.MXo.    o.mX# MXMX",
"pXpX# # pXMXMXkX  g s O a p u i a s d d d d d d s a i >   >       <   3 g j k h f s a i t r r t y a d g h g o.mXo.    o.NXMXMXMX",
"pXiXMXMXMXMXNXsX  f s O a p a p O d f f f f f f d O p >   >       <   3 f h k j g d O p t r r t y a d g h g   kXo.    sXNXMXiXiX",
"MXiXMXMXMXMXNXsX  h d g g g d d g h k h h h h k h g d <   ,       3   4 j l l l l h g d i u y i p f h j l l   o.o.    kXNXMXuXuX",
"MXMXMXMXNXkXsX        sXsXsXsXsXsX        sXsXo.sXsXsXsXsXsXsX      sXsXo.kXkXsXo.o.o.sXo.sXsXkXsXsXkXL.e sXsXsXo.    kXmXkXaXNX",
"sXo.sXsX                o.sXsXsXsX        o.sX  sXsX  sX              sXsXsXsXsXsXsXsXsXsXsXsXsXo.  o.sXkXsXo.          o.sXsXsX"
};
