/* XPM */
static char *_ec0f8fa0a4c46c2d5eb1f7f0e030d64H63Cq8ACNXefPSc6[] = {
/* columns rows colors chars-per-pixel */
"64 64 212 2 ",
"   c None",
".  c #242022",
"X  c #262224",
"o  c #262325",
"O  c #272325",
"+  c #272326",
"@  c #282526",
"#  c #292627",
"$  c #292528",
"%  c #292629",
"&  c #2A2628",
"*  c #2A2629",
"=  c #2A2729",
"-  c #2B2729",
";  c #2A272A",
":  c #2B292A",
">  c #2B282B",
",  c #2C282A",
"<  c #2C282B",
"1  c #2D292B",
"2  c #2C292C",
"3  c #2D292C",
"4  c #2C2A2C",
"5  c #2D2A2C",
"6  c #2D2A2D",
"7  c #2E2A2E",
"8  c #2F2A2E",
"9  c #2F2B2F",
"0  c #2F2C2F",
"q  c #2F2D2F",
"w  c #302C2F",
"e  c #2F2C30",
"r  c #2F2D30",
"t  c #302D30",
"y  c #312D30",
"u  c #302E30",
"i  c #312E31",
"p  c #312F32",
"a  c #312E33",
"s  c #312F33",
"d  c #322E32",
"f  c #322F32",
"g  c #332F32",
"h  c #322E33",
"j  c #322F33",
"k  c #332F34",
"l  c #323033",
"z  c #333033",
"x  c #343033",
"c  c #323034",
"v  c #333035",
"b  c #343134",
"n  c #353135",
"m  c #343234",
"M  c #353235",
"N  c #363235",
"B  c #353236",
"V  c #353336",
"C  c #353237",
"Z  c #353337",
"A  c #373337",
"S  c #373437",
"D  c #353238",
"F  c #353339",
"G  c #363438",
"H  c #373538",
"J  c #363439",
"K  c #373439",
"L  c #373539",
"P  c #37353A",
"I  c #38353A",
"U  c #38353B",
"Y  c #39373B",
"T  c #3B363A",
"R  c #3A373B",
"E  c #39383D",
"W  c #3A383C",
"Q  c #3B383C",
"!  c #3B393C",
"~  c #3A393D",
"^  c #3B393F",
"/  c #3C383C",
"(  c #3C383D",
")  c #3C393D",
"_  c #3B3940",
"`  c #3D3B40",
"'  c #3C3A41",
"]  c #3D3C42",
"[  c #3E3C42",
"{  c #3F3D44",
"}  c #403D43",
"|  c #424046",
" . c #424147",
".. c #444247",
"X. c #444347",
"o. c #424048",
"O. c #424148",
"+. c #434148",
"@. c #454349",
"#. c #46444C",
"$. c #46454D",
"%. c #48464E",
"&. c #4B494E",
"*. c #494851",
"=. c #4A4950",
"-. c #4C4A50",
";. c #4C4A51",
":. c #4E4D57",
">. c #504E54",
",. c #514F59",
"<. c #535155",
"1. c #525056",
"2. c #51515A",
"3. c #51515B",
"4. c #56545A",
"5. c #59575B",
"6. c #555560",
"7. c #595964",
"8. c #5A5A66",
"9. c #5F5E64",
"0. c #5E5E6A",
"q. c #64646B",
"w. c #60606D",
"e. c #60616E",
"r. c #61626F",
"t. c #68666C",
"y. c #626270",
"u. c #636370",
"i. c #656674",
"p. c #666774",
"a. c #666775",
"s. c #676874",
"d. c #686875",
"f. c #696A76",
"g. c #6E6D76",
"h. c #6E6E76",
"j. c #6A6C7C",
"k. c #6E6F7E",
"l. c #6F707F",
"z. c #737277",
"x. c #737378",
"c. c #7A7A7F",
"v. c #737685",
"b. c #737687",
"n. c #747786",
"m. c #747887",
"M. c #787881",
"N. c #7B7B81",
"B. c #7A7A84",
"V. c #7E7D84",
"C. c #757788",
"Z. c #757888",
"A. c #757988",
"S. c #777889",
"D. c #767989",
"F. c #777B8A",
"G. c #797C8B",
"H. c #7E8394",
"J. c #818087",
"K. c #83848E",
"L. c #86868D",
"P. c #87878E",
"I. c #8D8D94",
"U. c #86899B",
"Y. c #8F909C",
"T. c #94949C",
"R. c #94969F",
"E. c #888DA0",
"W. c #888EA1",
"Q. c #898DA2",
"!. c #898EA2",
"~. c #8A8FA3",
"^. c #8C8FA2",
"/. c #8A8FA4",
"(. c #8B90A4",
"). c #8D91A5",
"_. c #8E93A6",
"`. c #8F94A7",
"'. c #9797A2",
"]. c #989CB1",
"[. c #999CB1",
"{. c #989CB2",
"}. c #999CB2",
"|. c #999CB3",
" X c #9A9DB3",
".X c #9A9EB3",
"XX c #9A9EB4",
"oX c #9B9FB4",
"OX c #9C9FB4",
"+X c #9DA0B5",
"@X c #9EA1B6",
"#X c #A5AAC2",
"$X c #A6ABC3",
"%X c #A7ACC4",
"&X c #A9ADC4",
"*X c #ABAFC6",
"=X c #ADB3CC",
"-X c #AFB5CE",
";X c #B4B5C1",
":X c #B0B6CE",
">X c #B2B7D0",
",X c #B6BBD6",
"<X c #B6BCD7",
"1X c #B7BCD8",
"2X c #B8BDD8",
"3X c #B8BED8",
"4X c #B8BED9",
"5X c #B9BFD9",
"6X c #BABFD9",
"7X c #BBC0DB",
"8X c #BCC1DB",
"9X c #BDC2DC",
/* pixels */
"                                                                                                                                ",
"                                                                                                                                ",
"    Y / / / / / / / / Y > N N N c S N l N N N c S c S N N c N l S ! / / / / / / ! ! ~ H ! ! ! ! / / ! S l S m l N N N c S c     ",
"    ! '.;X;X;X;X;X;X;XR.O Y.Y.Y.Y.Y.Y.Y.Y.Y.Y.Y.Y.Y.Y.Y.Y.Y.Y.Y.4 ;X;X;X;X;X;X;X;X;X;X&X;X;X;X;X;X;X;Xl K.Y.Y.Y.Y.Y.Y.Y.B.N     ",
"    i XX4X4X4X4X7X1X7X{.O ~.~.~.(.Q.(.(.(.W.(.(.(.(.~.~.~.~.~.~.; 4X4X4X4X4X4X4X7X<X7X<X7X<X7X<X7X<X<X> H.(.(.(.~.~.~.~.A.2     ",
"    i XX4X4X4X4X<X7X1X{.O ~.~.~.(.W.W.(.(.(.Q.W.~.~.~.~.~.~.~.~.; 4X4X4X4X4X4X4X<X7X<X7X<X7X<X7X<X7X7X4 H.(.W.(.~.~.~.~.A.2     ",
"    i XX4X4X4X4X7X<X1X{.O ~.~.~.Q.(.(.Q.Q.(.Q.(.~.~.~.~.~.~.~.~.; 2X4X4X4X4X4X4X7X<X7X<X7X<X7X<X7X<X7X> H.(.W.Q.~.~.~.~.m.>     ",
"    i XX4X4X4X4X<X7X1X{.O ~.~.~.(.(.W.(.(.W.(.(.~.~.~.~.~.~.~.~.; 4X4X4X4X4X4X4X<X7X<X7X<X7X<X7X<X7X<X> H.(.(.(.~.~.(.(.m.9     ",
"    u +X7X7X7X7X7X<X7X+X. W./.W.W././.W././.(.(././.(.(.(.(.(.(.# 2X2X2X1X1X1X8X1X4X4X4X7X7X7X7X4X1X1X; H.(.(.(.~.~.(.(.A.2     ",
"    u =.:.:.:.:.:.:.:.$..  .O.O.O. .O.O.O.~ O.O.o.} O.} O.}  .O.X ,.>.3.,.,.3.:.:.3.#.3.2.:.:.:.3.,.,.; { } O.} }  .} O.' e     ",
"    ~ q.c.c.v.c.N.c.c.c.c.c.N.c.c.c.c.M.N.> q.q.u.q.q.q.q.q.q.q.q.q.q.q.q.q.q.q.q.q.4 c.c.c.c.M.c.c.N.N.N.N.N.c.N.N.c.c.t.!     ",
"    u +X8X7X7X7X9X9X9X9X9X9X9X9X9X9X9X7X9X% _._.`.`.`.`.`.`._._.`.`.`.`.`.`.`.'.`.'.# 8X9X9X9X7X8X8X9X9X9X9X9X9X9X9X9X9X@Xi     ",
"    m +X7X<X7X<X7X<X7X<X7X<X7X<X7X<X7X<X1X$ ~.~.(./.~.~.(.(.Q.(././.~.~.~.~.~.~.Q.Q.$ 1X7X1X7X<X4X4X4X4X4X4X4X4X4X4X4X4XXXi     ",
"    q +X<X7X<X7X<X7X<X7X1X7X<X7X<X7X<X7X1X$ ~.~.(.(.~.~.W.(.(.W.~.~.~.~.~.~.~.~././.$ 7X<X7X<X7X4X4X4X4X4X4X4X4X4X4X4X4XXXi     ",
"    q +X7X<X7X<X7X<X7X<X7X<X7X<X7X<X7X1X7X$ ~.~.~.~.~.~.(.Q.Q.(.~.~.~.~.~.~.~.~./.~.$ 1X7X<X7X<X4X4X4X4X4X4X4X4X4X4X4X4XXXi     ",
"    q +X<X7X<X7X<X7X<X7X<X7X<X7X<X7X<X7X1X$ ~.~.~.~.~.~.(.W.(.(.~.~.~.~.~.~.~.~./.~.$ 1X<X7X<X7X4X4X4X4X4X4X4X4X4X4X4X4XXXi     ",
"    l [.7X1X7X<X4X4X4X4X4X4X4X4X4X4X4X4X4X; ~.~.~.~.~.~.~.~.(.W.~.~.~.~.~./././.~.~.$ 4X4X4X4X4X4X4X4X4X4X4X4X4X4X4X4X4XXXi     ",
"    u [.1X7X<X7X4X4X4X4X4X4X4X4X4X4X4X4X4X# ~.~.~.~.~.~.~.~.Q.(.~.~.~.~.~./././.~.~.$ 4X4X4X4X4X4X4X4X4X4X4X4X4X4X4X4X4XXXs     ",
"    l +X7X<X7X<X4X4X4X4X4X4X4X4X4X4X4X4X4X# ~.~././././.~.~.~.(.~.~.~.~.~.~././.~.~.$ 4X4X4X4X4X4X4X4X4X4X4X4X,X4X4X4X4XXXi     ",
"    l [.<X7X1X<X2X2X2X4X2X2X2X2X2X2X2X2X1X+ Q.~.Q./././.Q.Q.Q.Q.Q.Q.Q.~.~.~././.~.~.# 2X2X2X2X4X2X2X2X2X4X4X,X,X1X1X4X1XXXi     ",
"    c $.:.:.3.3.,.,.,.,.8.l.l.l.l.l.v.k.l.< } +.} O.} o.} +.} } G  . .} } o.o.} } } ; ,.,.,.,.,.3.>.,.3.k.l.x.v.j.v.v.x.w.Y     ",
"    ! x.L.L.L.L.L.L.L.N.S ;.;.;.;.;.%.;.;.>.h.h.g.g.h.h.k.g.k.g.> L.L.P.L.P.P.P.L.L.L.L.L.L.L.L.L.P.L.i ..;.;.;.&.*.*.;.+.g     ",
"    u +X8X8X8X8X8X8X8X*Xr _._._._._._._._._.`.`._._._._.'.`._._.; 9X9X9X6X9X9X9X6X9X6X9X8X8X8X8X9X8X8XY F._._._._._._._.F.4     ",
"    r +X<X7X<X7X4X4X4X%X0 ~.~.~.~.~.~.~././././.~.~./././.Q.~.~.; 7X1X1X4X4X4X4X4X4X4X4X4X4X4X4X4X4X4XK n./.~.~.~./.~.~.m.9     ",
"    i XX4X4X4X4X4X4X4X%X9 ~.~.~.~.~.~.~.~.~.~.~.~.~.~.~.~.~.~.~.; 1X4X4X4X4X4X4X4X4X4X4X4X4X4X4X4X4X4XJ b.~.~.~.~.~.~.~.C.;     ",
"    i XX4X4X4X4X4X4X4X%X9 ~.~.~.~.~.~.~.~.~.~.~.~.~.~.~.~.~.~.~.; 1X4X4X4X4X4X4X4X4X4X4X4X4X4X4X4X4X4XY m.~.~.~.~.~.~.~.C.9     ",
"    i XX4X4X4X4X4X4X4X%X9 ~.~.~.~.~.~.~.~.~.~.~.~.~.~.~.~.~.~.~.; 4X4X4X4X4X4X4X4X4X4X4X4X4X4X4X4X4X4XG m.(.~.~.~.~.~.~.m.>     ",
"    i XX4X4X4X4X4X4X4X%X9 ~.~.~.~.~.~.~.~.~.~.~.~.~.~.~.~.~.~.~.; <X4X4X4X4X4X4X4X4X4X4X4X4X4X4X4X4X4XG m.~.~.~.~.~.~.~.m.9     ",
"    i XX1X4X4X4X4X4X4X%Xr ~.~.~.~.~.~.~.~.~.~.~.~.~.~.~.~.~.~.~.; 4X4X4X4X4X4X4X4X4X4X4X4X4X4X4X4X4X4XJ b.~.~.~.~.~.~.~.A.>     ",
"    i XX4X4X4X4X4X4X4X%X9 ~.~.~.~.~.~.~.~.~././.~.~.~.~.~.~.~.~.; 4X4X4X4X4X4X4X4X4X4X4X4X4X4X4X4X4X4XK b.~.~.~.~.~.~./.A.9     ",
"    i XX1X1X1X1X1X1X1X$Xr ~.~.Q.Q.Q.Q.Q.Q.Q.Q.Q.Q.Q.Q.Q.Q.Q.Q.Q.; 1X,X1X4X,X<X4X1X1X1X1X1X1X1X1X1X,X1XK b.Q.Q.Q.Q.Q./.Q.n.4     ",
"    s { $.$.$.$.$.$.$.O.; _ ^ _ ^ ^ _ _ _ _ N _ _ _ _ _ _ _ _ _ + p.p.p.a.p.p.p.a.0.$.$.$.$.$.$.$.$.#.; J _ _ _ _ _ ! ' J 9     ",
"    _ x.P.P.P.P.P.P.P.P.P.P.P.L.P.P.P.P.P.J.i h.h.h.h.h.h.h.h.h.>.&.&.&.&.;.&.&.=.! <.L.L.P.H.J.L.L.L.L.H.H.H.H.P.P.N.H.x.!     ",
"    g XX6X9X6X6X9X4X9X6X9X4X8X8X6X6X6X6X6X:X4 _._.(._.(.(._.(.(.^._.^._._.^._.^.(.i.f.7X7X7X7X7X8X8X7X9X4X<X9X9X9X9X7X7X.Xu     ",
"    s XX4X4X4X4X4X4X4X4X4X4X4X4X4X4X4X4X4X>X< ~.~.~.~.~.(.~.(.(.~.~.~.~.~.~./././.r.i.<X7X7X<X7X7X>X8X7X7X<X7X7X8X7X7X7X+Xm     ",
"    s XX4X4X4X4X4X4X4X4X4X4X4X4X4X4X4X4X4X:X< ~.~.~.~.~.~.~.W.(.~.~.~.~.~.~.~./.W.e.i.7X7X7X7X<X7X7X7X7X<X<X7X-X8X7X7X7X+Xm     ",
"    i XX4X4X4X4X4X4X4X4X4X4X4X4X4X4X4X4X4X-X< ~.~.~.~.~.Q.(.W.Q.~.~.~.~.~.~.~.~./.r.f.7X<X7X<X7X7X>X7X<X7X-X7X7X<X7X<X7X+Xu     ",
"    i XX4X4X4X4X4X4X4X4X4X4X4X4X4X4X4X4X4X-X< ~.~.~.~.~.(.(.(.(.~.~.~.~.~.~.~.~./.r.f.7X7X<X7X<X7X7X<X7X7X7X7X-X7X<X7X<X].u     ",
"    i XX4X4X4X4X4X4X4X4X4X4X4X4X4X4X4X4X4X-X< ~.~.~.~.~.(.W.W.(.~.~.~.~.~.~.~.~.W.r.r.7X<X7X<X7X7X7X7X<X7X7X7X7X<X7X<X7X+Xq     ",
"    i XX4X4X4X4X4X4X4X4X4X4X4X4X4X4X4X4X2X:X< ~.~.~.~.~.Q.(.(.(.~.~.~.~.~.~.~.~.W.e.i.<X7X<X7X<X7X:X7X7X7X-X7X7X7X<X7X7X+Xm     ",
"    i XX1X1X4X4X4X4X4X4X4X4X4X4X4X4X4X4X4X-X2 /.(.~.~.(.(.(.(.(.~.~.~.~.~.~.~.W.(.e.s.7X7X7X<X7X7X1X7X1X1X8X1X1X<X7X7X7X].r     ",
"    N [.1X<X<X1X<X,X<X<X<X<X<X<X1X4X,X1X,X-X2 ~.Q.~.U.W.W.Q.W.W.~.Q.~.U.Q.~.Q.Q.Q.e.p.<X<X7X<X<X<X<X<X<X<X<X<X<X7X>X<X7X].q     ",
"    k +.*.*.;.*.*.*.*.;.3.a.a.a.a.a.a.a.a.u.e _ ] ] ] ] ' ] ] ] G { { { } } } } { F G *.=.$.=.$.$.*.*.;.i.s.a.a.r.f.i.f.7.S     ",
"    / V.T.T.T.T.T.T.T.P.H 4.4.4.4.4.4.4.4.4.9.M.M.M.M.M.M.M.M.M.; T.T.T.T.T.T.T.T.T.T.T.T.T.T.Y.T.T.T.N &.4.4.4.3.4.3.4.&.l     ",
"    u +X4X8X<X8X4X8X4X%Xr (.(.(.(.(.(.(.^.^.(.(.(.(.(.(.(.(.(.(.; 4X4X6X6X6X6X6X8X1X7X7X7X<X7X7X7X7X7XZ m.(.(.(.(.(.(.(.F.0     ",
"    u {.1X7X1X<X4X4X4X%X9 ~.~.~.~.~.~.~././././.(.Q.W.(.W.(.Q.(.; 4X4X4X4X4X4X4X<X7X<X7X<X7X<X7X7X<X7XF m.~.(.~.~.~.~.~.A.2     ",
"    u +X7X<X7X1X4X4X4X%X0 ~.~.~.~.~.~.~.~.~././.(.(.(.(.(.(.W.(.; 4X4X4X4X4X4X4X7X<X7X<X7X<X7X<X7X<X<XF m.~.~.~.~.~.~.~.m.>     ",
"    r +X<X7X<X7X4X4X4X%X0 ~.~.~.~.~.~.~.~.~.~.~.W.(.Q.W.(.Q.(.Q.# 4X4X4X4X4X4X4X<X7X<X7X<X7X<X7X<X7X7XG m.~.~.~.~.~.(.(.m.9     ",
"    l XX4X4X4X4X4X4X4X%X0 (.~.~.(.Q.(.(.Q.(.(.Q.(.(.Q.(.W.(.(.(.o 7X<X7X<X7X1X7X4X4X4X4X4X4X4X4X7X<X7Xc m.(.W.W./.(.(.(.A.4     ",
"    i XX4X4X4X4X4X4X4X%X0 (.~.~.(.W.W.(.(.W.(.W.W.(.(.W.(.(.W.(.% <X7X<X7X1X7X1X4X4X4X4X4X4X4X<X<X7X7XF m.W./.(./.W.W.(.A.4     ",
"    i XX4X4X4X2X4X4X4X%X0 ~.~.~.(.(.W.(.(.W.(.(.Q.(.(.Q.(.W.(.W.% 7X<X7X<X7X8X1X4X4X4X4X4X4X2X8X<X7X7XZ m.(.(.(.(.(.W.W.m.4     ",
"    i XX4X4X4X2X4X4X4X%X0 ~.~.~.W.(.(.W.Q.(.(.Q.(.(.W.(.(.W.(./.o 7X7X<X7X<X1X1X4X4X4X4X4X4X2X2X7X<X7XF m.W.(./.W././.(.m.0     ",
"    i [.<X,X<X,X,X,X,X#X0 ~.U.(.Y.Q.Q.Q.U.~.U.~.Q.U.Q.Q.U.W.W.W.% <X<X<X,X,X,X,X<X<X,X,X2X,X,X<X<X>X7XV v.U.U.Y.U.~.U.~.m.4     ",
"    c { #.+.X.#.X.X.X.X.l / ] ~ ] ! ! ' ] _ J ! ~ ~ ~ ~ ~ ~ ~ ~ : O. . .O.O. . . .] ! ..+...+.#.O.O.X.q ! ] ` ! ] ] ] ~ ! 0     ",
"    / V.T.T.T.T.T.T.Y.Y.T.T.T.T.T.T.T.T.R.I.g M.M.M.M.M.M.M.M.M.M.M.v.c.M.M.M.M.M.4.5.T.T.T.T.R.R.Y.T.Y.T.T.T.Y.R.T.T.T.V./     ",
"    i +X8X2X8X<X7X7X7X7X7X<X7X8X2X7X2X8X2X:X< ~.(./././././././././.W.W./././././.q.d.2X8X4X4X4X7X7X8X7X7X7X7X7X7X7X1X8X+Xi     ",
"    i XX4X4X4X4X7X<X7X<X7X<X7X<X4X4X4X4X4X:X< ~.~.~.~.~.~.~.~.~././.Q.(.W.Q.(.W./.r.a.4X4X4X4X4X4X4X4X4X4X4X4X4X<X7X<X7X{.u     ",
"    i XX4X4X4X4X<X7X<X7X<X7X<X7X4X4X4X4X4X-X< ~.~.~.~.~.~.~.~.~.(.W.(.(.(.(.(.(./.r.a.4X4X4X4X4X4X4X4X4X4X4X4X4X7X<X7X<X+X4     ",
"    i XX4X4X4X4X7X<X7X<X7X<X7X<X4X4X4X4X4X-X< ~.~.~.~.~.~.~.(.(.(.(.W.W.(.Q.Q.(.~.q.d.4X4X4X4X4X4X4X4X4X4X4X4X4X<X7X<X7X[.l     ",
"    i XX4X4X4X4X<X7X<X7X<X7X<X7X4X4X4X2X4X-X< ~.~.~.~.~.~.~.(.(.W.(.(.(.W.(.(.W.~.y.d.4X4X4X4X4X4X4X4X4X4X4X4X4X7X<X7X<X+Xl     ",
"    G F.^.^.^.^.~.Y.(.(.U.(.(.(.~.^.^.^.(.U.0 j.j.j.j.j.j.j.j.j.j.j.j.j.j.j.j.j.j.:.4.(.^.^.^.^.^.^.^.^.^.^.^.^.^.^.^.^.A.G     ",
"    N A A A A A A A H S V V S S Y N A A S S l l 0 0 q q 0 l q u u u 0 l r u u u 0 9 N G A A A A A A A A A A A A A A A J N G     ",
"                                                                                                                                ",
"                                                                                                                                "
};