/* XPM */
static char *_e2f0b8761af43b6966804d62b1af144Ac1s5B1oFA4lmSoR[] = {
/* columns rows colors chars-per-pixel */
"64 64 43 1 ",
"  c #C1403A",
". c #C3423B",
"X c #C4433C",
"o c #CA4B41",
"O c #CE4E41",
"+ c #CF4F41",
"@ c #CE5044",
"# c #D05143",
"$ c #D25344",
"% c #D35545",
"& c #D35647",
"* c #D45545",
"= c #D55847",
"- c #D75948",
"; c #D75B4A",
": c #D85A49",
"> c #D95C4A",
", c #DB5E4B",
"< c #DB5F4B",
"1 c #DC5F4C",
"2 c #DC604C",
"3 c #DD604D",
"4 c #DC614D",
"5 c #DD634E",
"6 c #DE634E",
"7 c #DE634F",
"8 c #DE644F",
"9 c #DF644F",
"0 c #DF6450",
"q c #E06550",
"w c #E16551",
"e c #E16751",
"r c #E26852",
"t c #E36852",
"y c #E46A53",
"u c #E66B54",
"i c #E86E56",
"p c #E86F57",
"a c #EA7058",
"s c #EA7158",
"d c #EA7159",
"f c #EB7159",
"g c #EB7259",
/* pixels */
"7777882pdgggp&@O.ge6662yugggggggggggggggggggggg.**<966<<9egggggu",
"777,808dggggg8OO.e66666eggggggggggggggggggggggg.*.<66<96<igggggg",
"78,8800gggggd2OO6e66166eggggggggggggggggggggggg**.9<66669igggggg",
"7272800gggggd2OOX61<666eggggggggggggggggggggggg**.<u6<6<9ugggggg",
"<977720dggggd2OO1y66166eggggggggggggggggggggggg<.*<9<6669igggggg",
"q1,7820dggggg8OOX66666<eggggggggggggggggggggggg.X*9<<6669ugggggg",
"17,7720dggggd,OO<661666yggggggggggggggggggggggg***96e9662ugggggg",
"0787270dggddd8OO.66666<eggggggggggggggggggggggg*X*99<<666ggggggg",
"019<01tgggggg2OOXuy666,ygggggggaggggggggggggggg*:X2226666ugggggg",
"7q1710qgggggg8OO*622666egggggggaggggggggggggggg2XX6666222ugggggg",
"728772qggggga7OO*666666yggggggaagggggggggggggggXX22662669agggggg",
",7,778qgggggd2OO*222662yggggggagggggggggggggggg*2X2662666ugggggg",
"8287717aggggg<OO-y26y22egaagggggggggggggggggggg*X-6966665agggggu",
"&8270079wqqq8#OOX666,55yueyeuuuweeyieyugyuugeu2--XX65y666uageey:",
"      XO++OOOOOOX**X.*X***X**XX-XX-2.2.X.X-X.X-XX-X2X-X,XX.X-XXX",
"      XOO+OOOOOO**X**.**XX*X-X-XX-XXXXX6.-X-X-X--X-X:X-X2X2XX-X-",
" @@@@@@==&&=$==**==%*==$***-.<.*2X.-e.6.:-******<***-**-.2--X9-X",
"0002200dggaggaggaggggggggggggg<X..y,y6y6yggggggggggggggggggggggg",
"2202500dgggggggggggggggggggggg-*Xi666666eggggggggggggggggggggggg",
"2820500dgggggggggggggggggggggg*XX6666666yggggggggggggggggggggggg",
"2502520dgggggggggggggggggggggg<-X,666262ufffgggggggggggggggggggg",
"0020200ggggggggggggggggggggggg-X26266,26efgggggggggggggggggggggg",
"2552050ggggggggggggggggggggggg-X.y626666uggggggggggggggggggggggg",
"2055000ggggggggggggggggggggggg<-X.266666uggggggggggggggggggggggg",
"2202400ddggggggggggggggggggggg-X2666,626ugsggggggggggggggggggggg",
"0500550dgggggggggggggggggggggg-X.,266626uggggggggggggggggggggggg",
"4044550dgggggggggggggggggggggg2=X2666266ugffgggggggggggggggggggg",
"4440000dgggggggggggggggggggggg-X:2666662uggfgggggggggggggggggggg",
"0444040dgggggggggggggggggggggg,X.,662266ugiffigggggggggggggggggg",
"0404040pgggggggggggggggggggggg2XX*<t6662ugfffggigggggggggggggggg",
"o;;;;;;45>22252222222222222u8eX:-X<<6t22y,,,616,6e<<u<22<2y66y,*",
"       @@@X$X$X*X$X*X*X*X*XXXX-XX-<XXX*.X*X**X**XX*.X*.**..*.X*.",
".X....XX*X*X*XX**.*.*.*.*XXX*.X.-XXXXX<XXX:.X,X-*X**XX<..<XX-.*.",
"X9.<-<22222<<***.<<666<<66u<66ut9t<<ut9t2tt,69-<X*X222t2<t<<t<2<",
"u226266sggggg<*X*u6<666tggggggggggggggsgggggsgsXX*9u22t<2usgggss",
"666626ugggggg<.**66666<tggggggggggggggggggggsggX*X2,<<<6tuggggss",
"662662tsggggg6.**6666<6tggggggggggggggggggggggg2XX66<tt<6igggggg",
"662666tiggggg6*.*66666<ugggggggggggggggggggggggX-<662<<62agggggg",
"626666ugggggg6X-.6<66<6uggggggggggggggggggggggg9X*t6<<t66igggggg",
"6662<<tggggggu*X<<6666<ugggggggggggggggggggggggX-X<6t<<66igggggg",
"2692669ggggggu.--66666<uggggggggggggggggggggggg2**2626662igggggg",
"269262tgggggs6<..6<6<6<ugggggggggggggggggggggggX.X2266266igggggg",
"6669299gggggs6..<666<66uggggggggggggggggggggggs1*.6662666isggggg",
"622922tgggggs6.<,6666666ggggggggggggggggggggggsX.-226662<isggggg",
"q<q<29tsggggsu-XX66<66<uggggggggggsgggggggggggg::.uu66<66agggggg",
"<q<qt,2sggggsuX-<<66<6<uggggggggggssgggggggsggs<.:<666626ggsgggg",
"q6y9tutsssggs-*XXu666669iggigggggsgsgsgggsgsgggXXX:6662u6ussgggu",
"XX<XX2XX6.66XXX*X*----*--*-*-**6X9<.2<X2<X91X2X:<<XX<6.<6.,2X-<X",
"X..   X@X&@X*X-X-.--.XX<XX**X*XX:.:.:.:X**X*:.:XX<XX*X*X:X:*.**X",
"X.    X@&X%XX-X-..X-2XX.-**X*.**.:...:..XX*X.:..<XX<..X:X-X.*X**",
"*6625500r9rreeauu9usiuuuuuuuu<X***66it66uuutiuttuuguut6uauuuttu*",
"99<6080gagggggggggggggssugiigg<*.:666666ugggggggagggggaggggiiggi",
"6287280gggggggggggggggggiggggg-X*,966666usssggggaggggggggggggssg",
"2927220dggggaggggggggggggggggg<XX666,666uissgggggggggggggggggsgg",
"8299000dgggggggggggggggggggggg-*.-2t6666uggggggggggggggggggggggg",
"2982220ggggggggggggggggggggggg-X*-22,666uggggggggggggggggggggggg",
"292992eggggggggggggggggggggggg,2X9,96966ussggggggggggggggggggggg",
"822289egggggggggggggggggggggggX..-666,9,usgggggggggggggggggggggg",
"5227289ggggggggggggggggggggggg-.:2t26666usgggggggggggggggggggggg",
"298828eggggggggggggggggggggggg2,.9266666uggggggggggggggggggggggg",
"9292659ggggggggggggggggggggggg2..9666922ussggggggggggggggggggggg",
"297925eggggggggggggggggggggggg2...666,29ussggggggggggggggggggggg",
"777225eagggggggggggggggggggggg9.29269229usgggggggggggggggggggsgg",
"7929555ggggggggggggggggggggggg.2..t22922tsgggggggggggggggggggssi"
};