/* XPM */
static char *_f96214209a245a49cf0fe865412f7e2xX2I4qh99b1peKS8[] = {
/* columns rows colors chars-per-pixel */
"64 64 191 2 ",
"   c #384466",
".  c #384669",
"X  c #324D69",
"o  c #38496D",
"O  c #355072",
"+  c #1C7076",
"@  c #256171",
"#  c #3C6C7D",
"$  c #57475A",
"%  c #794B4D",
"&  c #644956",
"*  c #73465E",
"=  c #726848",
"-  c #434562",
";  c #484862",
":  c #405168",
">  c #4A5E7D",
",  c #535F79",
"<  c #775E6A",
"1  c #675F71",
"2  c #44617F",
"3  c #4A627D",
"4  c #526B79",
"5  c #7C6C6F",
"6  c #77766A",
"7  c #A24F3E",
"8  c #A3503D",
"9  c #87753C",
"0  c #BB6D2D",
"q  c #C77D24",
"w  c #FE6D36",
"e  c #854C49",
"r  c #994F42",
"t  c #95485A",
"y  c #985E5B",
"u  c #AC4F40",
"i  c #B14F40",
"p  c #BC4E42",
"a  c #B75C4D",
"s  c #B95D4C",
"d  c #A84F56",
"f  c #BC614B",
"g  c #A9685E",
"h  c #B7795D",
"j  c #885E62",
"k  c #857167",
"l  c #A46860",
"z  c #A77563",
"x  c #C74E44",
"c  c #D64D46",
"v  c #C64A54",
"b  c #C95850",
"n  c #DA5754",
"m  c #E54C4A",
"M  c #F54D4B",
"N  c #FF4C4C",
"B  c #EF514F",
"V  c #FF5347",
"C  c #FA4E50",
"Z  c #E65556",
"A  c #F25258",
"S  c #C8684A",
"D  c #CD784D",
"F  c #D8704B",
"G  c #E2764A",
"H  c #E7794A",
"J  c #EB7B49",
"K  c #DE5967",
"L  c #C1647F",
"P  c #0C877F",
"I  c #19997A",
"U  c #2E8979",
"Y  c #358878",
"T  c #239B73",
"R  c #0BBB6B",
"E  c #38BF60",
"W  c #79AD58",
"Q  c #35D05B",
"!  c #00CE66",
"~  c #06C469",
"^  c #1ACA62",
"/  c #27C362",
"(  c #72D24D",
")  c #BA9522",
"_  c #D99318",
"`  c #D7B613",
"'  c #EAA80C",
"]  c #F6BB05",
"[  c #FBBD00",
"{  c #F5B809",
"}  c #E9BA11",
"|  c #FD8426",
" . c #DBB629",
".. c #DEA13C",
"X. c #E1B722",
"o. c #FEAA3E",
"O. c #FEB03B",
"+. c #D6D637",
"@. c #FAD72F",
"#. c #FDD82E",
"$. c #F8C733",
"%. c #E8D434",
"&. c #F9D431",
"*. c #FBD831",
"=. c #F5D739",
"-. c #94945C",
";. c #A89D53",
":. c #88A956",
">. c #B5AD59",
",. c #9DA876",
"<. c #AAAB67",
"1. c #CD8143",
"2. c #DC924C",
"3. c #EB8A4C",
"4. c #FF8B47",
"5. c #F78449",
"6. c #FB8549",
"7. c #FF8848",
"8. c #EF8F5B",
"9. c #F48D55",
"0. c #C8B242",
"q. c #DF966E",
"w. c #E59367",
"e. c #85D449",
"r. c #A5D343",
"t. c #E5D64F",
"y. c #D2D469",
"u. c #C6D379",
"i. c #3C5A88",
"p. c #3D6397",
"a. c #3F6CA6",
"s. c #445F80",
"d. c #456182",
"f. c #47688B",
"g. c #4B759A",
"h. c #4073AF",
"j. c #4178B8",
"k. c #437EC1",
"l. c #9D729D",
"z. c #AB6D92",
"x. c #867BAF",
"c. c #098D81",
"v. c #059282",
"b. c #009A85",
"n. c #149481",
"m. c #518BB3",
"M. c #6F9DB1",
"N. c #7AA0A3",
"B. c #6ADEAC",
"V. c #72DFB2",
"C. c #7BE1B8",
"Z. c #4385CD",
"A. c #569AC6",
"S. c #5A99CA",
"D. c #458DD9",
"F. c #5498D3",
"G. c #5490D8",
"H. c #6B85C5",
"J. c #5AA8D6",
"K. c #65BAC1",
"L. c #6CBDC5",
"P. c #4694E4",
"I. c #4893E2",
"U. c #5FB8E8",
"Y. c #62BFF0",
"T. c #7AC1CD",
"R. c #76C9E7",
"E. c #76CCE6",
"W. c #73C4ED",
"Q. c #66C5F6",
"!. c #65CAFD",
"~. c #70C6F0",
"^. c #93A683",
"/. c #83A297",
"(. c #B7A79C",
"). c #9DB2BB",
"_. c #AEABA7",
"`. c #A6AEB1",
"'. c #CC9E83",
"]. c #C1A391",
"[. c #93CEBE",
"{. c #A5D0A6",
"}. c #A3D0A8",
"|. c #84E1BD",
" X c #C0D381",
".X c #95B6C5",
"XX c #83BDDA",
"oX c #8AC9CD",
"OX c #86E2C0",
"+X c #CADBFD",
"@X c #E4F0FD",
/* pixels */
"#.#.#.#.#.#.#.#.#.#.#.*.!.!.!.!.!.!.!.!.7.7.7.7.7.7.7.7.s s s s 7 7 7 7 7 7 7 7 7 7 7 7                 ] [ [ [ [ [ [ [ [ [ [ [ ",
"#.#.#.#.#.#.#.#.#.#.#.t.!.!.!.!.!.!.!.W.7.7.7.7.7.7.7.6.s s s s 7 7 7 7 7 7 7 7 7 7 7 e               o X.[ [ [ [ [ [ [ [ [ [ [ ",
"#.#.#.#.#.#.#.#.#.#.#.y.!.!.!.!.!.!.!.XX7.7.7.7.7.7.7.5.s s s s 7 7 7 7 7 7 7 7 7 7 7 e               O 0.[ [ [ [ [ [ [ [ [ [ [ ",
"#.#.#.#.#.#.#.#.#.#.#.}.!.!.!.!.!.!.!..X7.7.7.7.7.7.7.J s s s s 7 7 7 7 7 7 7 7 7 7 7 &               p.^.[ [ [ [ [ [ [ [ [ [ [ ",
"#.#.#.#.#.#.#.#.#.#.*.E.!.!.!.!.!.!.!.(.7.7.7.7.7.7.7.G s s s s 7 7 7 7 7 7 7 7 7 7 7 -               a.S.] [ [ [ [ [ [ [ [ [ [ ",
"#.#.#.#.#.#.#.#.#.*. X!.!.!.!.!.!.!.!.q.7.7.7.7.7.7.7.F s s s s 7 7 7 7 7 7 7 7 7 7 %                 k.P.>.[ [ [ [ [ [ [ [ [ [ ",
"#.#.#.#.#.#.#.#.#.=.R.!.!.!.!.!.!.!.Y.7.7.7.7.7.7.7.7.S s s s s 7 7 7 7 7 7 7 7 7 r -               O I.P.S.{ [ [ [ [ [ [ [ [ [ ",
"#.#.#.#.#.#.#.#.#.oX!.!.!.!.!.!.!.!.(.7.7.7.7.7.7.7.6.s s s s s 7 7 7 7 7 7 7 7 7 $                 h.I.P.P.N.] [ [ [ [ [ [ [ [ ",
"#.#.#.#.#.#.#.#.{.!.!.!.!.!.!.!.!.Q.8.7.7.7.7.7.7.7.H s a a a a 7 7 7 7 7 7 7 7 &                 . D.P.P.P.P.^.[ [ [ [ [ [ [ [ ",
"#.#.#.#.#.#.*.oX!.!.!.!.!.!.!.!.!.`.7.7.7.7.7.7.7.7.S s a f a f 7 7 7 7 7 7 7 $                   g.P.P.P.P.P.P./.{ [ [ [ [ [ [ ",
"#.#.#.#.*.u.R.!.!.!.!.!.!.!.!.!.~.9.7.7.7.7.7.7.7.6.y s s s f f 7 7 7 7 7 % -                   o D.P.P.P.P.P.P.P.F.<.] [ [ [ [ ",
"*.t.y.}.E.!.!.!.!.!.!.!.!.!.!.!.'.7.7.7.7.7.7.7.7.z 2 , < y d a 7 e e & -                       a.P.P.P.P.P.P.P.P.P.P.S.^.0.X.] ",
"!.!.!.!.!.!.!.!.!.!.!.!.!.!.!.`.7.7.7.7.7.7.7.7.5.4 2 2 s.s.s.s.                              9 /.P.P.P.P.P.P.P.P.P.P.P.P.P.P.P.",
"!.!.!.!.!.!.!.!.!.!.!.!.!.!..X4.7.7.7.7.7.7.7.7.z i.s.> s.s.s.s.                            = ] { M.P.P.P.P.P.P.P.P.P.P.P.P.P.P.",
"!.!.!.!.!.!.!.!.!.!.!.!.!..X4.4.7.7.7.7.7.7.7.3.3 s.s.s.s.s.s.s.                          = ] [ [ ] /.P.P.P.P.P.P.P.P.P.P.P.P.P.",
"!.!.!.!.!.!.!.!.!.!.!.!.).4.7.7.7.7.7.7.7.7.7.5 s.s.s.s.s.s.s.s.                        9 ] ] [ [ [ ] ^.P.P.P.P.P.P.P.P.P.P.P.P.",
"!.!.!.!.!.!.!.!.!.!.W.'.7.7.7.7.7.7.7.7.7.7.z d.s.s.s.s.s.s.s.s.                    : ) [ [ [ [ [ [ [ [ 0.G.P.P.P.P.P.P.P.P.P.P.",
"!.!.!.!.!.!.!.!.Q.`.9.7.7.7.7.7.7.7.7.7.7.2.Y 2 s.s.s.s.s.s.> 2                   + ` [ [ [ [ [ [ [ [ [ [ } ^.P.P.P.P.P.P.P.P.P.",
"!.!.!.!.!.!.W._.8.7.7.7.7.7.7.7.7.7.7.4.2.^ ! ~ T # 2 2 s.> i.2             X + P b.I ` [ [ [ [ [ [ [ [ [ [ [ } ,.F.P.P.I.I.P.P.",
"!.~.oX.X(.q.7.7.7.7.7.7.7.7.7.7.7.7.7.3./ ! ! ! ! ! R T U # # 2     @ @ + P b.b.b.b.b.T } [ [ [ [ [ [ [ [ [ [ [ [ [  .<./.S.F.P.",
"7.7.7.7.7.7.7.7.7.7.7.7.7.7.7.7.7.7.2./ ! ! ! ! ! ! ! ! ! ! ! |.oXb.b.b.b.b.b.b.b.b.b.b.T ` [ [ [ [ [ [ [ [ [ [ [ [ [ [ [ [ [ [ ",
"7.7.7.7.7.7.7.7.7.7.7.7.7.7.7.7.7.2.^ ! ! ! ! ! ! ! ! ! ! ! V.@X+XL.b.b.b.b.b.b.b.b.b.b.b.I } [ [ [ [ [ [ [ [ [ [ [ [ [ [ [ [ [ ",
"7.7.7.7.7.7.7.7.7.7.7.7.7.7.7.7.o.r.! ! ! ! ! ! ! ! ! ! ! V.@X@X+X+XL.b.b.b.b.b.b.b.b.b.b.b.g | [ [ [ [ [ [ [ [ [ [ [ [ [ [ [ [ ",
"7.7.7.7.7.7.7.7.7.7.7.7.7.7.4.$.#.&.^ ! ! ! ! ! ! ! ! ! V.@X@X@X+X+X+XL.b.b.b.b.b.b.b.b.b.I C N w { [ [ [ [ [ [ [ [ [ [ [ [ [ [ ",
"7.7.7.7.7.7.7.7.7.7.7.7.| O.=.*.#.#.e.! ! ! ! ! ! ! ! V.@X@X@X@X+X+X+X+XL.b.b.b.b.b.b.b.b.k N N N V w [ [ [ [ ] [ [ [ [ [ [ [ [ ",
"7.7.7.7.7.7.7.7.7.7.7.O.#.#.*.*.#.#.+.! ! ! ! ! ! ! V.@X@X@X@X@X+X+X+X+X+XL.b.b.b.b.b.b.b.Z N N N V V V w [ [ ] [ [ [ [ [ [ [ [ ",
"7.7.7.7.7.7.7.6.J S D #.#.#.#.#.#.#.#.Q ! ! ! ! ! V.@X@X@X@X@X@X+X+X+X+X+X+XL.b.b.b.b.b.U N N N N N N N V x q _ ] [ [ ] [ [ [ [ ",
"7.6.5.J G F S s f s s $.#.#.#.#.#.#.#.( ! ! ! ! V.@X@X@X@X@X@X@X+X+X+X+X+X+X+XL.b.b.b.b.6 N N N N N N V M 8 7 7 8 0 q _ ' ' { [ ",
"s s s s s s s s s s f ..#.#.#.#.#.#.#.r.! ! ! V.@X@X@X@X@X@X@X@X+X+X+X+X+X+X+X+XL.b.b.b.g N N N N N N N c 7 7 7 7 7 7 7 7 7 7 7 ",
"s s s s s s s s s s f 1.#.#.#.#.#.#.&.+.! ! V.@X@X@X@X@X@X@X@X@X+X+X+X+X+X+X+X+X+XL.b.b.b N N N N N N N p 7 7 7 7 7 7 7 7 7 7 7 ",
"s s s s s s s s s s s f #.#.#.#.#.#.#.%.! V.@X@X@X@X@X@X@X@X@X@X+X+X+X+X+X+X+X+X+X+XL.b.B N N N N N N N u 7 7 7 7 7 7 7 7 7 7 7 ",
"s s s s s s s s s s s f #.#.#.#.#.#.#.#.|.@X@X@X@X@X@X@X@X@X@X@X+X+X+X+X+X+X+X+X+X+X+XT.N N N N N N N N 7 7 7 7 7 7 7 7 7 7 7 7 ",
"s s s s s s s s s s s f #.#.#.#.#.#.@.@.C.@X@X@X@X@X@X@X@X@X@X@X+X+X+X+X+X+X+X+X+X+X+XT.N N N N N N N N 7 7 7 7 7 7 7 7 7 7 7 7 ",
"s s s a s s s s s s s S #.#.#.#.#.#.@.%.! B.@X@X@X@X@X@X@X@X@X@X+X+X+X+X+X+X+X+X+X+XK.b.B N N N N N N N u 7 7 7 7 7 7 7 7 7 7 7 ",
"s s s s s s s s s s s 1.#.#.#.#.#.#.#.+.! ! B.@X@X@X@X@X@X@X@X@X+X+X+X+X+X+X+X+X+XK.b.b.b N N N N N N N p 7 7 7 7 7 7 7 7 7 7 7 ",
"s s s s s s s s s s s ..#.#.#.#.#.#.*.r.! ! ! B.@X@X@X@X@X@X@X@X+X+X+X+X+X+X+X+XK.b.b.b.l C N N N N N N c 7 7 u 7 7 7 7 7 7 7 7 ",
"> > , , < j y a s s f $.#.#.#.#.#.#.#.( ! ! ! ! B.@X@X@X@X@X@X@X+X+X+X+X+X+X+XK.b.b.b.b.6 N N N N N N N M u 8 8 7 7 7 7 7 7 7 7 ",
"s.s.> > s.s.s.> 1 y 1.@.#.#.#.#.#.#.#.Q ! ! ! ! ! B.@X@X@X@X@X@X+X+X+X+X+X+XK.b.b.b.b.b.Y N N N N N N N N x 8 8 7 7 7 7 7 7 7 7 ",
"s.s.s.s.s.s.s.> 2 2 2 ;.%.#.#.#.#.#.+.! ! ! ! ! ! ! B.@X@X@X@X@X+X+X+X+X+XK.b.b.b.b.b.b.b.n N N N N N N N M 8 r 7 7 7 7 7 7 7 7 ",
"s.s.s.s.s.s.s.d.2 2 2 i.3 -.&.*.#.#.e.! ! ! ! ! ! ! ! B.@X@X@X@X+X+X+X+XK.b.b.b.b.b.b.b.b.k N N N N N N N N c u 7 7 7 7 7 7 7 7 ",
"s.s.s.s.s.s.s.s.s.s.s.s.s.s.4 0.#.#.^ ! ! ! ! ! ! ! ! ! B.@X@X@X+X+X+XK.b.b.b.b.b.b.b.b.b.n.C N N N N N N N N c 7 7 7 7 7 7 7 7 ",
"s.s.s.s.s.s.s.s.s.s.s.s.s.s.s.d.-.r.! ! ! ! ! ! ! ! ! ! ! B.@X@X+X+XK.b.b.b.b.b.b.b.b.b.b.b.l N N N N N N N N N m 7 7 8 7 7 7 7 ",
"s.s.s.s.s.s.s.s.s.s.s.s.s.s.s.s.i.# ~ ! ! ! ! ! ! ! ! ! ! ! B.@X+XL.b.b.b.b.b.b.b.b.b.b.b.v.o M N N N N N N N N N M x 8 7 7 7 7 ",
"s.s.s.s.s.s.s.s.s.s.s.s.s.s.s.s.2 2 # ~ ! ! ! ! ! ! ! ! ! ! ! OXoXb.b.b.b.b.b.b.b.b.b.b.c.X   * N N N N N N N N N N N M c p i 7 ",
"!.Y.U.J.m.g.d.d.d.s.s.s.s.s.s.s.s.s.d.# R ! ! ! ! ! E W ;.2.3.7.N Z n l 6 Y b.b.b.b.b.c.X       d N N N N N N N N N N N N N N N ",
"!.!.Q.!.!.!.Q.A.f.d.s.s.s.s.s.s.s.s.s.2 # ~ ! ^ :.2.7.7.7.7.7.7.N N N N N N n k I b.v.X           v N N N N N N N N N N N N N N ",
"!.!.!.!.!.!.!.!.!.A.d.> s.s.s.s.s.s.2 2 2 4 ;.4.7.7.7.7.7.7.7.7.N N N N N N N N C l X             - v N N N N N N N N N N N N N ",
"!.!.!.!.!.!.!.!.!.!.Y.m.s.s.s.s.s.s.i.d.k 5.7.7.7.7.7.7.7.7.7.7.N N N N N N N N N t                   d N N N N N N N N N N N N ",
"!.!.!.!.!.!.!.!.!.!.!.!.A.d.d.d.s.s.s.h 7.7.7.7.7.7.7.7.7.7.7.7.N N N N N N N N v                     j.x.A N N N N N N N N N N ",
"!.!.!.!.!.!.!.!.!.!.!.!.!.J.d.d.s.f.D 7.7.7.7.7.7.7.7.7.7.7.7.7.N N N N N N N N ;                   k.P.P.G.z.C N N N N N N N N ",
"!.!.!.!.!.!.!.!.!.!.!.!.!.!.J.d.s.D 7.7.7.7.7.7.7.7.7.7.7.7.7.7.N N N N N N N t                   k.P.P.P.P.P.G.z.A C N N N N N ",
"!.!.!.!.!.!.!.!.!.!.!.!.!.!.!.J.h 7.7.7.7.7.7.7.7.7.7.7.7.7.7.7.N N N N N N m -                 a.P.P.P.P.P.P.P.P.P.H.l.L K A C ",
"*.t.y.{.E.!.!.!.!.!.!.!.!.!.!.).7.7.7.7.7.7.7.7.7.7.7.5.G S S a u u p c M N t                 p.P.P.P.P.P.P.P.P.P.P.I.S.^.0.X.] ",
"@.@.#.#.#.u.E.!.!.!.!.!.!.!.~.9.7.7.7.7.7.7.7.7.7.5.F s s s s s r 7 7 7 7 p -               o D.P.P.P.P.P.P.P.P.P.S.>.[ ] [ [ [ ",
"#.#.#.#.#.#.*.[.!.!.!.!.!.!.].7.7.7.7.7.7.7.7.| H f s s s s s s 7 7 7 7 7 %                 a.P.P.P.P.P.P.P.P.P./.} [ [ [ [ [ [ ",
"#.#.#.#.#.#.#.*.{.!.!.!.!.W.4.7.7.7.7.7.7.7.7.G a s s s s s s s 7 7 7 7 u $               O P.P.P.P.P.P.P.P.P.^.[ [ [ [ [ [ [ [ ",
"#.#.#.#.#.#.#.#.*.[.!.!.!.(.7.7.7.7.7.7.7.7.J s s s s s s s s s 7 7 7 7 7 -               a.P.P.P.P.P.P.P.P./.[ [ [ [ [ [ [ [ [ ",
"#.#.#.#.#.#.#.#.#.=.E.!.!.8.7.7.7.7.7.7.7.5.s s s s s s s s s s 7 7 7 7 e                 D.P.P.P.P.P.P.P.S.{ [ [ [ [ [ [ [ [ [ ",
"#.#.#.#.#.#.#.#.#.#.u.!.XX7.7.7.7.7.7.7.7.F s s s s s s s s s s 7 7 7 7 %               i.I.P.P.P.P.P.P.P.>.[ [ [ [ [ [ [ [ [ [ ",
"#.#.#.#.#.#.#.#.#.#.*.E._.7.7.7.7.7.7.7.5.s s s s s s s s s s s 7 7 7 7 $               a.I.P.P.P.P.P.P.S.] [ [ [ [ [ [ [ [ [ [ ",
"#.#.#.#.#.#.#.#.#.#.#.{.'.7.7.7.7.7.7.7.G s s s s s s s s s s s 7 7 7 7 $               j.P.P.P.P.P.P.P.^.[ [ [ [ [ [ [ [ [ [ [ ",
"#.#.#.#.#.#.#.#.#.#.#.y.w.7.7.7.7.7.7.7.S s s s s s s s s s s s 7 7 7 7 -               Z.P.P.P.P.P.P.P.0.[ [ [ [ [ [ [ [ [ [ [ ",
"#.#.#.#.#.#.#.#.#.#.#.t.9.7.7.7.7.7.7.7.b s s s s s s s s s a a 7 7 7 7 -               I.P.P.P.P.P.P.P.X.[ [ [ [ [ [ [ [ [ [ [ ",
"#.#.#.#.#.#.#.#.#.#.#.&.7.7.7.7.7.7.7.4.s s s s s a s s a a a a 7 7 7 7                 P.P.P.P.P.P.P.P.] [ [ [ [ [ [ [ [ [ [ [ "
};