/* XPM */
static char *ad3cf004d4c243c4e277a047edd2f6945qc4Uq0bbjk2KFx8[] = {
/* columns rows colors chars-per-pixel */
"64 64 158 2 ",
"   c #384466",
".  c #1C776C",
"X  c #0D6C77",
"o  c #006E79",
"O  c #0D7173",
"+  c #00777C",
"@  c #107172",
"#  c #227569",
"$  c #246973",
"%  c #267F79",
"&  c #467757",
"*  c #547951",
"=  c #667C48",
"-  c #47656D",
";  c #53636A",
":  c #656168",
">  c #667B6E",
",  c #687A6E",
"<  c #976835",
"1  c #996934",
"2  c #987F34",
"3  c #A56D2E",
"4  c #E56D29",
"5  c #FE6C29",
"6  c #F47326",
"7  c #E07335",
"8  c #F37B31",
"9  c #9A4859",
"0  c #AB4957",
"q  c #A24959",
"w  c #BE5558",
"e  c #9B7266",
"r  c #A97562",
"t  c #C45657",
"y  c #C05758",
"u  c #CC5C58",
"i  c #DD5754",
"p  c #D35A56",
"a  c #E94E4F",
"s  c #F74D4E",
"d  c #FF4C4C",
"f  c #F2504F",
"g  c #E74F50",
"h  c #EA4F50",
"j  c #63C83D",
"k  c #01877F",
"l  c #0D9C7E",
"z  c #139C7B",
"x  c #199E78",
"c  c #23906E",
"v  c #239A79",
"b  c #17B56F",
"n  c #1DA17B",
"m  c #01B673",
"M  c #24A278",
"N  c #4A8556",
"B  c #5B9655",
"V  c #668E47",
"C  c #69944B",
"Z  c #4DA55C",
"A  c #54A659",
"S  c #5DB55B",
"D  c #67A94F",
"F  c #6BAA4D",
"G  c #64A851",
"H  c #66B25A",
"J  c #6AB55D",
"K  c #499573",
"L  c #539471",
"P  c #65936D",
"I  c #45A867",
"U  c #51AD69",
"Y  c #60B163",
"T  c #6CB460",
"R  c #11CD5F",
"E  c #2CC25A",
"W  c #3AC452",
"Q  c #00CE66",
"!  c #0DCD63",
"~  c #18C664",
"^  c #13CD62",
"/  c #1CCE61",
"(  c #47D156",
")  c #4FD154",
"_  c #53D154",
"`  c #5AD252",
"'  c #6DD24E",
"]  c #63D251",
"[  c #998133",
"{  c #809A3C",
"}  c #A78E33",
"|  c #96AF36",
" . c #9CAD32",
".. c #B3A623",
"X. c #B9A820",
"o. c #A7B12C",
"O. c #BBB621",
"+. c #C2891E",
"@. c #C8911D",
"#. c #D89114",
"$. c #E88D0B",
"%. c #F18F07",
"&. c #FD8F01",
"*. c #DEB30E",
"=. c #DDBB0F",
"-. c #CAB61A",
";. c #D3B314",
":. c #D8B712",
">. c #EEBB07",
",. c #E4B60B",
"<. c #E6BA0B",
"1. c #F3BB04",
"2. c #FBBD00",
"3. c #FD8526",
"4. c #E59635",
"5. c #FDA224",
"6. c #F3A12C",
"7. c #FEB23B",
"8. c #F4BA3C",
"9. c #CCC013",
"0. c #D7CF3B",
"q. c #C6D53C",
"w. c #D7D538",
"e. c #FAD72F",
"r. c #FDD82E",
"t. c #E1D535",
"y. c #ECD533",
"u. c #F1D632",
"i. c #F2D830",
"p. c #978A46",
"a. c #9A8B44",
"s. c #99965A",
"d. c #9B995A",
"f. c #BC8E57",
"g. c #A09C57",
"h. c #AAA153",
"j. c #CD964E",
"k. c #D4944D",
"l. c #DE914C",
"z. c #C48D56",
"x. c #C29055",
"c. c #E78A4E",
"v. c #F38B4A",
"b. c #FF8848",
"n. c #E5AD42",
"m. c #97D445",
"M. c #B6C647",
"N. c #B4C648",
"B. c #BAD240",
"V. c #C1CC42",
"C. c #445F80",
"Z. c #008880",
"A. c #089783",
"S. c #009A85",
"D. c #0C9B81",
"F. c #129481",
"G. c #109881",
"H. c #00A380",
/* pixels */
"C.C.C.C.C.C.C.C.C.C.C.C.C.C.C.C.C.C.C.C.C.C.C.C.C.C.C.r b.b.b.b.d d d d 0                                                       ",
"C.C.C.C.C.C.C.C.C.C.C.C.C.C.C.C.C.C.C.C.C.C.C.C.C.C.e b.b.b.b.b.d d d d d 9                                                     ",
"C.C.C.C.C.C.C.C.C.C.C.C.C.C.C.C.C.C.C.C.C.C.C.C.C.e b.b.b.b.b.b.d d d d d d 9                                                   ",
"C.C.C.C.C.C.C.C.C.C.C.C.C.C.C.C.C.C.C.C.C.C.C.C.e b.b.b.b.b.b.b.d d d d d d d 9                                                 ",
"C.C.C.C.C.C.C.C.C.C.C.C.C.C.C.C.C.C.C.C.C.C.C.e b.b.b.b.b.b.b.b.d d d d d d d d 9                                               ",
"C.C.C.C.C.C.C.C.C.C.C.C.C.C.C.C.C.C.C.C.C.C.e b.b.b.b.b.b.b.b.b.d d d d d d d d d 9                                             ",
"C.C.C.C.C.C.C.C.C.C.C.C.C.C.C.C.C.C.C.C.C.e b.b.b.b.b.b.b.b.b.b.d d d d d d d d d d 9                                           ",
"C.C.C.C.C.C.C.C.C.C.C.C.C.C.C.C.C.C.C.C.e b.b.b.b.b.b.b.b.b.b.b.d d d d d d d d d d d q                                         ",
"C.C.C.C.C.C.C.C.n.b.b.b.b.b.b.b.b.b.b.b.b.b.b.b.b.b.b.b.b.b.b.b.d d d d d d d d d d d d d d d d d d d d d d d 7                 ",
"C.C.C.C.C.C.C.C.r.7.b.b.b.b.b.b.b.b.b.b.b.b.b.b.b.b.b.b.b.b.b.b.d d d d d d d d d d d d d d d d d d d d d d 3.2.                ",
"C.C.C.C.C.C.C.C.r.r.7.b.b.b.b.b.b.b.b.b.b.b.b.b.b.b.b.b.b.b.b.b.d d d d d d d d d d d d d d d d d d d d d 3.2.2.                ",
"C.C.C.C.C.C.C.C.r.r.r.7.b.b.b.b.b.b.b.b.b.b.b.b.b.b.b.b.b.b.b.b.d d d d d d d d d d d d d d d d d d d d 3.2.2.2.                ",
"C.C.C.C.C.C.C.C.r.r.r.r.7.b.b.b.b.b.b.b.b.b.b.b.b.b.b.b.b.c.P D.X : h d d d d d d d d d d d d d d d d 3.2.2.2.2.                ",
"C.C.C.C.C.C.C.C.r.r.r.r.r.7.b.b.b.b.b.b.b.b.b.b.b.b.b.b.c.v S.S.o o $ g d d d d d d d d d d d d d d 3.2.2.2.2.2.                ",
"C.C.C.C.C.C.C.C.r.r.r.r.r.r.7.b.b.b.b.b.b.b.b.b.b.b.b.b.K S.S.S.o o o - d d d d d d d d d d d d d 3.2.2.2.2.2.2.                ",
"C.C.C.C.C.C.C.C.r.r.r.r.r.r.r.7.b.b.b.b.b.b.b.b.b.b.b.f.S.S.S.S.o o o o t d d d d d d d d d d d 3.2.2.2.2.2.2.2.                ",
"C.C.C.C.C.C.C.C.r.r.r.r.r.r.r.r.7.b.b.v.j.l.b.b.b.b.b.L S.S.S.S.o o o o ; d d d d s i p f d d 3.2.2.2.2.2.2.2.2.                ",
"C.C.C.C.C.C.C.C.r.r.r.r.r.r.r.r.r.8.H ! Q Q ^ H j.b.v.D.S.S.S.S.o o o o X d d u > G.S.S.S.> 8 2.2.2.2.2.2.2.2.2.                ",
"C.C.C.C.C.C.C.C.r.r.r.r.r.r.r.r.r.] Q Q Q Q Q Q Q J f.S.S.S.S.S.o o o o o t , S.S.S.S.S.S.S.G 2.2.2.2.2.2.2.2.2.                ",
"C.C.C.C.C.C.C.C.r.r.r.r.r.r.r.r.u.Q Q Q Q Q Q Q Q Q b S.S.S.S.S.o o o o + z S.S.S.S.S.S.S.S.D.>.2.2.2.2.2.2.2.2.                ",
"C.C.C.C.C.C.C.g.r.r.r.r.r.r.r.r.w.Q Q Q Q Q Q Q Q Q m n T M.0.r.2.*...V v S.S.S.S.S.S.S.S.S.S.;.2.2.2.2.2.2.2.2.[               ",
"C.C.C.C.C.C.s.r.r.r.r.r.r.r.r.r.w.Q Q Q Q Q Q Q Q / B.e.r.r.r.r.2.2.2.2.2.o.n S.S.S.S.S.S.S.S.=.2.2.2.2.2.2.2.2.2.2             ",
"C.C.C.C.C.s.r.r.r.r.r.r.r.r.r.r.i.^ Q Q Q Q Q Q ) i.r.r.r.r.r.r.2.2.2.2.2.2.>.Z S.S.S.S.S.S.z 2.2.2.2.2.2.2.2.2.2.2.2           ",
"C.C.C.C.s.r.r.r.r.r.r.r.r.r.r.r.r.` Q Q Q Q Q ' r.r.r.r.r.r.r.r.2.2.2.2.2.2.2.2.F S.S.S.S.S.D 2.2.2.2.2.2.2.2.2.2.2.2.2         ",
"C.C.C.s.r.r.r.r.r.r.r.r.r.r.r.r.r.q.Q Q Q Q _ r.r.r.r.r.r.r.r.r.2.2.2.2.2.2.2.2.2.Z S.S.S.S.-.2.2.2.2.2.2.2.2.2.2.2.2.2.2       ",
"C.C.s.r.r.r.r.r.r.r.r.r.r.r.r.r.r.r.` Q Q / i.r.r.r.r.r.r.r.r.r.2.2.2.2.2.2.2.2.2.>.x S.S.G 2.2.2.2.2.2.2.2.2.2.2.2.2.2.2.2     ",
"C.d.r.r.r.r.r.r.r.r.r.r.r.r.r.r.r.r.V./ Q m.r.r.r.r.r.r.r.r.r.r.2.2.2.2.2.2.2.2.2.2. .Z.c X.1.2.2.2.2.2.2.2.2.2.2.2.2.2.2.2.[   ",
"h.r.r.r.r.r.r.r.r.r.r.r.r.r.r.V.U D.S.H./ r.r.r.r.r.r.r.r.r.r.r.2.2.2.2.2.2.2.2.2.2.2.. o o X N X.2.2.2.2.2.2.2.2.2.2.2.2.2.2.} ",
"r.r.r.r.r.r.r.r.r.r.r.r.r.t.I S.S.S.S.S.T r.r.r.r.r.r.r.r.t._ ! D.Z :.2.2.2.2.2.2.2.2.V o o o o o N ,.2.2.2.2.2.2.2.2.2.2.2.2.2.",
"r.r.r.r.r.r.r.r.r.r.r.r.y.M S.S.S.S.S.S.M.r.r.r.r.r.r.r.t.^ Q Q S.S.z =.2.2.2.2.2.2.2...o o o o o o # ,.2.2.2.2.2.2.2.2.2.2.2.2.",
"r.r.r.r.r.r.r.r.r.r.r.r.Y S.S.S.S.S.S.S.w.r.r.r.r.r.r.r._ Q Q Q S.S.S.A 2.2.2.2.2.2.2.;.o o o o o o o V 2.2.2.2.2.2.2.2.2.2.2.2.",
"r.r.r.r.r.r.r.r.r.r.r.r.G.S.S.S.S.S.S.S.u.r.r.r.r.r.r.r.! Q Q Q S.S.S.z 2.2.2.2.2.2.2.>.o o o o o o o O 2.2.2.2.2.2.2.2.2.2.2.2.",
"2.2.2.2.2.2.2.2.2.2.2.2.l S.S.S.S.S.S.S.u.r.r.r.r.r.r.r.! Q Q Q S.S.S.l 2.2.2.2.2.2.2.>.o o o o o o o @ &.&.&.&.&.&.&.&.&.&.&.&.",
"2.2.2.2.2.2.2.2.2.2.2.2.G S.S.S.S.S.S.S.w.r.r.r.r.r.r.r._ Q Q Q S.S.S.A 2.2.2.2.2.2.2.;.o o o o o o o = &.&.&.&.&.&.&.&.&.&.&.&.",
"2.2.2.2.2.2.2.2.2.2.2.2.<.v S.S.S.S.S.S.N.r.r.r.r.r.r.r.w.! Q Q S.S.n =.2.2.2.2.2.2.2.X.o o o o o o # $.&.&.&.&.&.&.&.&.&.&.&.&.",
"2.2.2.2.2.2.2.2.2.2.2.2.2.<.I S.S.S.S.S.T r.r.r.r.r.r.r.r.t._ ! D.A =.2.2.2.2.2.2.2.2.{ o o o o o & $.&.&.&.&.&.&.&.&.&.&.&.&.&.",
"} 2.2.2.2.2.2.2.2.2.2.2.2.2.2.O.A D.S.S.n r.r.r.r.r.r.r.r.r.r.r.2.2.2.2.2.2.2.2.2.2.1.v + o X * +.&.&.&.&.&.&.&.&.&.&.&.&.&.&.3 ",
"C.a.2.2.2.2.2.2.2.2.2.2.2.2.2.2.2.1.O.W E B.r.r.r.r.r.r.r.r.r.r.2.2.2.2.2.2.2.2.2.2.| S.z +.&.&.&.&.&.&.&.&.&.&.&.&.&.&.&.&.1   ",
"C.C.p.2.2.2.2.2.2.2.2.2.2.2.2.2.2.2.] Q Q / i.r.r.r.r.r.r.r.r.r.2.2.2.2.2.2.2.2.2.>.x S.S.B &.&.&.&.&.&.&.&.&.&.&.&.&.&.&.<     ",
"C.C.C.p.2.2.2.2.2.2.2.2.2.2.2.2.2.-.Q Q Q Q ( r.r.r.r.r.r.r.r.r.2.2.2.2.2.2.2.2.2.Z S.S.S.S.@.&.&.&.&.&.&.&.&.&.&.&.&.&.1       ",
"C.C.C.C.p.2.2.2.2.2.2.2.2.2.2.2.2.j Q Q Q Q Q ' e.r.r.r.r.r.r.r.2.2.2.2.2.2.2.2.D S.S.S.S.S.B &.&.&.&.&.&.&.&.&.&.&.&.1         ",
"C.C.C.C.C.p.2.2.2.2.2.2.2.2.2.2.2.R Q Q Q Q Q Q ) u.r.r.r.r.r.r.2.2.2.2.2.2.>.Z S.S.S.S.S.S.z &.&.&.&.&.&.&.&.&.&.&.1           ",
"C.C.C.C.C.C.a.2.2.2.2.2.2.2.2.2.9.Q Q Q Q Q Q Q Q ^ m.r.r.r.r.r.2.2.2.2.2. .x S.S.S.S.S.S.S.S.#.&.&.&.&.&.&.&.&.&.1             ",
"C.C.C.C.C.C.C.a.2.2.2.2.2.2.2.2.9.! Q Q Q Q Q Q Q Q Q / T N.w.e.2.:...V . k S.S.S.S.S.S.S.S.S.#.&.&.&.&.&.&.&.&.1               ",
"C.C.C.C.C.C.C.C.2.2.2.2.2.2.2.2.>.! Q Q Q Q Q Q Q Q ~ H.S.S.S.S.o o o o o % S.S.S.S.S.S.S.S.A.%.&.&.&.&.&.&.&.&.                ",
"C.C.C.C.C.C.C.C.2.2.2.2.2.2.2.2.2.j Q Q Q Q Q Q Q Y x.S.S.S.S.S.o o o o o y > S.S.S.S.S.S.S.C &.&.&.&.&.&.&.&.&.                ",
"C.C.C.C.C.C.C.C.2.2.2.2.2.2.2.2.2.6.J ! Q Q ! S j.b.b.G.S.S.S.S.o o o o X s d u , F.S.S.A., 6 &.&.&.&.&.&.&.&.&.                ",
"C.C.C.C.C.C.C.C.2.2.2.2.2.2.2.2.5.b.b.v.k.l.b.b.b.b.b.L S.S.S.S.o o o o ; d d d d d i p f d d 5 &.&.&.&.&.&.&.&.                ",
"C.C.C.C.C.C.C.C.2.2.2.2.2.2.2.5.b.b.b.b.b.b.b.b.b.b.b.z.S.S.S.S.o o o o w d d d d d d d d d d d 5 &.&.&.&.&.&.&.                ",
"C.C.C.C.C.C.C.C.2.2.2.2.2.2.5.b.b.b.b.b.b.b.b.b.b.b.b.b.K A.S.S.o o o - d d d d d d d d d d d d d 5 &.&.&.&.&.&.                ",
"C.C.C.C.C.C.C.C.2.2.2.2.2.5.b.b.b.b.b.b.b.b.b.b.b.b.b.b.c.F.S.S.o o $ a d d d d d d d d d d d d d d 5 &.&.&.&.&.                ",
"C.C.C.C.C.C.C.C.2.2.2.2.5.b.b.b.b.b.b.b.b.b.b.b.b.b.b.b.b.c.P F.X : a d d d d d d d d d d d d d d d d 5 &.&.&.&.                ",
"C.C.C.C.C.C.C.C.2.2.2.5.b.b.b.b.b.b.b.b.b.b.b.b.b.b.b.b.b.b.b.b.d d d d d d d d d d d d d d d d d d d d 5 &.&.&.                ",
"C.C.C.C.C.C.C.C.2.2.5.b.b.b.b.b.b.b.b.b.b.b.b.b.b.b.b.b.b.b.b.b.d d d d d d d d d d d d d d d d d d d d d 5 &.&.                ",
"C.C.C.C.C.C.C.C.2.5.b.b.b.b.b.b.b.b.b.b.b.b.b.b.b.b.b.b.b.b.b.b.d d d d d d d d d d d d d d d d d d d d d d 5 &.                ",
"C.C.C.C.C.C.C.C.4.b.b.b.b.b.b.b.b.b.b.b.b.b.b.b.b.b.b.b.b.b.b.b.d d d d d d d d d d d d d d d d d d d d d d d 4                 ",
"C.C.C.C.C.C.C.C.C.C.C.C.C.C.C.C.C.C.C.C.e b.b.b.b.b.b.b.b.b.b.b.d d d d d d d d d d d 9                                         ",
"C.C.C.C.C.C.C.C.C.C.C.C.C.C.C.C.C.C.C.C.C.e b.b.b.b.b.b.b.b.b.b.d d d d d d d d d d 9                                           ",
"C.C.C.C.C.C.C.C.C.C.C.C.C.C.C.C.C.C.C.C.C.C.e b.b.b.b.b.b.b.b.b.d d d d d d d d d 9                                             ",
"C.C.C.C.C.C.C.C.C.C.C.C.C.C.C.C.C.C.C.C.C.C.C.e b.b.b.b.b.b.b.b.d d d d d d d d 9                                               ",
"C.C.C.C.C.C.C.C.C.C.C.C.C.C.C.C.C.C.C.C.C.C.C.C.e b.b.b.b.b.b.b.d d d d d d d 9                                                 ",
"C.C.C.C.C.C.C.C.C.C.C.C.C.C.C.C.C.C.C.C.C.C.C.C.C.e b.b.b.b.b.b.d d d d d d 9                                                   ",
"C.C.C.C.C.C.C.C.C.C.C.C.C.C.C.C.C.C.C.C.C.C.C.C.C.C.e b.b.b.b.b.d d d d d 9                                                     ",
"C.C.C.C.C.C.C.C.C.C.C.C.C.C.C.C.C.C.C.C.C.C.C.C.C.C.- r b.b.b.b.d d d d 0                                                       "
};