/* XPM */
static char *_19c09e4897b40e8d8588e59474b7338q996vrGnn63qgNmg[] = {
/* columns rows colors chars-per-pixel */
"16 16 173 2 ",
"   c #24110D",
".  c #25120E",
"X  c #26130F",
"o  c #26150E",
"O  c #27160E",
"+  c #2E110B",
"@  c #2B120E",
"#  c #28150F",
"$  c #29160F",
"%  c #28170F",
"&  c #2C180F",
"*  c #31140E",
"=  c #35140F",
"-  c #261211",
";  c #271312",
":  c #261410",
">  c #271511",
",  c #281312",
"<  c #281710",
"1  c #2A1710",
"2  c #2B1710",
"3  c #291713",
"4  c #2E1413",
"5  c #2C1712",
"6  c #2E1614",
"7  c #2F1715",
"8  c #2C1716",
"9  c #271811",
"0  c #261913",
"q  c #271A14",
"w  c #291810",
"e  c #291811",
"r  c #2B1811",
"t  c #2A1911",
"y  c #281912",
"u  c #2A1912",
"i  c #291A13",
"p  c #2B1A12",
"a  c #2B1A13",
"s  c #2F1810",
"d  c #2D1813",
"f  c #2D1A13",
"g  c #2C1B13",
"h  c #2E1A13",
"j  c #2B1915",
"k  c #291A15",
"l  c #281B15",
"z  c #2A1B14",
"x  c #281A17",
"c  c #2D1815",
"v  c #2E1914",
"b  c #2D1A14",
"n  c #2C1B14",
"m  c #2E1B14",
"M  c #2F1B14",
"N  c #2E1B15",
"B  c #2C1817",
"V  c #2D1817",
"C  c #2E1916",
"Z  c #2C1A16",
"A  c #2D1B17",
"S  c #2F1A17",
"D  c #2B1C15",
"F  c #2B1C17",
"G  c #2D1C14",
"H  c #2D1C15",
"J  c #2E1D15",
"K  c #2C1D16",
"L  c #2F1C16",
"P  c #2E1D16",
"I  c #2F1E16",
"U  c #2F1E17",
"Y  c #291B18",
"T  c #2D1918",
"R  c #2E1918",
"E  c #2E1A19",
"W  c #2F1A19",
"Q  c #2F1B1A",
"!  c #2A1C19",
"~  c #2E1C18",
"^  c #2F1D19",
"/  c #2D1E19",
"(  c #2E1F18",
")  c #2C1E1B",
"_  c #311511",
"`  c #301413",
"'  c #321412",
"]  c #301712",
"[  c #341713",
"{  c #331714",
"}  c #391612",
"|  c #311813",
" . c #311A12",
".. c #371813",
"X. c #321915",
"o. c #311A14",
"O. c #301816",
"+. c #311917",
"@. c #321A16",
"#. c #361B14",
"$. c #361A16",
"%. c #371A16",
"&. c #301C15",
"*. c #331C14",
"=. c #301D16",
"-. c #301D17",
";. c #311E17",
":. c #301F17",
">. c #321E17",
",. c #351C15",
"<. c #341D15",
"1. c #361D16",
"2. c #351E16",
"3. c #3C1B16",
"4. c #311919",
"5. c #301B1A",
"6. c #311C19",
"7. c #311E18",
"8. c #301F18",
"9. c #321F18",
"0. c #331F18",
"q. c #331E19",
"w. c #321F19",
"e. c #351D19",
"r. c #361D18",
"t. c #361D19",
"y. c #371E19",
"u. c #361F19",
"i. c #341C1A",
"p. c #351D1B",
"a. c #361E1A",
"s. c #371F1B",
"d. c #311D1C",
"f. c #371D1C",
"g. c #341F1C",
"h. c #341F1E",
"j. c #381F18",
"k. c #3F1D1B",
"l. c #3D1E1B",
"z. c #312019",
"x. c #332019",
"c. c #322119",
"v. c #33201A",
"b. c #32211A",
"n. c #33221B",
"m. c #342019",
"M. c #37201A",
"N. c #33201C",
"B. c #35201D",
"V. c #34231C",
"C. c #37231C",
"Z. c #35201F",
"A. c #37221F",
"S. c #36251E",
"D. c #3B2019",
"F. c #38211B",
"G. c #3A211A",
"H. c #3A231B",
"J. c #3A211C",
"K. c #39221C",
"L. c #3A231D",
"P. c #3B241C",
"I. c #3D241D",
"U. c #3F241D",
"Y. c #3C251F",
"T. c #3D261E",
"R. c #3E271F",
"E. c #3E2520",
"W. c #3E2721",
"Q. c #3B2625",
"!. c #43201C",
"~. c #43221D",
"^. c #412821",
/* pixels */
"#.j.1.s s x.G % S.t X 0 E E 8 E ",
"U.^.R.1.o.8.x.( G t 8 G d.E E E ",
"a.E.W.M.G ;.x.G G j c ^ 8.c { 4.",
"@ o.a.x.x.x.( j n.n.x.G 6 6 8 o.",
"6 s c G x.S.n.G G x.x.;.;.o.{ { ",
"A.E -   j x.x.8.X D x.S.H.H.1.6 ",
"A.E -   > j z D t z G M.P.U.H.#.",
"8 8 8 E E j t t z.z.s $ ;.P.U.j.",
"Q.h., < ^ j > G z.z.G s ;. .1.1.",
"4.4.V c n.^ G n.z.g s % &  . .1.",
"4 i.i.d.h.c t G g g t % t s ;.m.",
"` a.a.a.H.c < j G g g g G ;.x.;.",
"` #.{ { A.M.x.x.t t D D ( x.^ ^ ",
"k.k.{ ` K.U.8.G t 0 0 D ( ) D j ",
"!.~.} * a.M.s 0 D j 0 l Y ! Y Y ",
"} 3.= @ #.M.G t x.D l 0 Y ! ) ) "
};
