/* XPM */
static char *_92ee6bbceaf4db5c45a9e64bf025587XpmV8fu6GQ0OrpsH[] = {
/* columns rows colors chars-per-pixel */
"64 64 249 2 ",
"   c #0E0C0D",
".  c #150D03",
"X  c #1D0C04",
"o  c #1E0C0A",
"O  c #100F0A",
"+  c #0C1509",
"@  c #0F1104",
"#  c #141206",
"$  c #1B1404",
"%  c #1B1A06",
"&  c #15140A",
"*  c #1D140C",
"=  c #141B0C",
"-  c #1B1A0D",
";  c #151805",
":  c #180E11",
">  c #1D1512",
",  c #151D13",
"<  c #1D1C13",
"1  c #1B151A",
"2  c #161A1D",
"3  c #1C1D19",
"4  c #171715",
"5  c #0A1710",
"6  c #2B0503",
"7  c #240B04",
"8  c #2B0C03",
"9  c #2D070A",
"0  c #230D0B",
"q  c #2C0D0B",
"w  c #230706",
"e  c #350602",
"r  c #3C0501",
"t  c #340C03",
"y  c #3B0B03",
"u  c #320708",
"i  c #330D0B",
"p  c #3B0D0B",
"a  c #3E060A",
"s  c #241404",
"d  c #2B1304",
"f  c #24140D",
"g  c #2B130D",
"h  c #241A0D",
"j  c #2B1A0C",
"k  c #261A03",
"l  c #331204",
"z  c #3A1404",
"x  c #351A04",
"c  c #33130D",
"v  c #3A120C",
"b  c #331B0E",
"n  c #3B1B0E",
"m  c #3D1F05",
"M  c #260E11",
"N  c #2C0F11",
"B  c #330510",
"V  c #241513",
"C  c #2B1513",
"Z  c #241B14",
"A  c #2B1B14",
"S  c #23161A",
"D  c #2B161A",
"F  c #241D19",
"G  c #2B1C1A",
"H  c #331513",
"J  c #3B1414",
"K  c #331B14",
"L  c #3B1A15",
"P  c #331519",
"I  c #3D1718",
"U  c #331D1A",
"Y  c #3B1C1B",
"T  c #1C220A",
"R  c #152214",
"E  c #1C2214",
"W  c #152319",
"Q  c #1C231B",
"!  c #1D2A1D",
"~  c #1D2913",
"^  c #0B2718",
"/  c #23210D",
"(  c #2C210F",
")  c #222105",
"_  c #38210E",
"`  c #242215",
"'  c #2B2215",
"]  c #24221B",
"[  c #2B221B",
"{  c #23291C",
"}  c #2C291D",
"|  c #272914",
" . c #322114",
".. c #3A2215",
"X. c #3D2B13",
"o. c #33221D",
"O. c #3B231C",
"+. c #34291E",
"@. c #372B18",
"#. c #1F1D22",
"$. c #281E22",
"%. c #331D22",
"&. c #3B1C22",
"*. c #391F28",
"=. c #1E2822",
"-. c #242521",
";. c #2A2521",
":. c #2E2922",
">. c #292428",
",. c #332422",
"<. c #3C2521",
"1. c #332B23",
"2. c #3C2B24",
"3. c #3F2C29",
"4. c #372929",
"5. c #393229",
"6. c #363022",
"7. c #3F3430",
"8. c #440B00",
"9. c #4D0A01",
"0. c #430D0C",
"q. c #4D0F0B",
"w. c #450301",
"e. c #530B05",
"r. c #44120C",
"t. c #4C140B",
"y. c #421A0C",
"u. c #491A0D",
"i. c #461702",
"p. c #541404",
"a. c #53130C",
"s. c #52190E",
"d. c #591709",
"f. c #570C12",
"g. c #431413",
"h. c #491413",
"j. c #431B15",
"k. c #4A1C14",
"l. c #411619",
"z. c #431C1B",
"x. c #4A1C1C",
"c. c #4C1319",
"v. c #511514",
"b. c #521C14",
"n. c #5C1C14",
"m. c #541C1C",
"M. c #5A1D1B",
"N. c #561419",
"B. c #490E14",
"V. c #631F0C",
"C. c #691E1A",
"Z. c #631D17",
"A. c #6E1318",
"S. c #462107",
"D. c #58260B",
"F. c #462515",
"G. c #43221C",
"H. c #4B231D",
"J. c #44291D",
"K. c #4B2518",
"L. c #5B2312",
"P. c #54241B",
"I. c #5C241B",
"U. c #562C1B",
"Y. c #552515",
"T. c #4E351F",
"R. c #5A311B",
"E. c #65230F",
"W. c #6B2315",
"Q. c #66281B",
"!. c #69361A",
"~. c #70341C",
"^. c #441C23",
"/. c #4B1E21",
"(. c #571C22",
"). c #611E22",
"_. c #432423",
"`. c #4B2322",
"'. c #442B25",
"]. c #4B2B24",
"[. c #4C252A",
"{. c #442D29",
"}. c #4B2C2B",
"|. c #43232E",
" X c #522324",
".X c #592425",
"XX c #522A23",
"oX c #5C2B25",
"OX c #522A29",
"+X c #5C2E2C",
"@X c #57262B",
"#X c #443325",
"$X c #45342B",
"%X c #4B332E",
"&X c #483024",
"*X c #53312D",
"=X c #5C332D",
"-X c #543A2C",
";X c #543527",
":X c #5B2F31",
">X c #4B3430",
",X c #4B3A32",
"<X c #533332",
"1X c #5C3534",
"2X c #533934",
"3X c #5A3D38",
"4X c #642326",
"5X c #632B25",
"6X c #6B2B24",
"7X c #63252A",
"8X c #642B2A",
"9X c #682D29",
"0X c #76262A",
"qX c #693428",
"wX c #783927",
"eX c #622E32",
"rX c #653B3C",
"tX c #683433",
"yX c #773B36",
"uX c #7A2F36",
"iX c #4E4035",
"pX c #5B4332",
"aX c #52433C",
"sX c #5D432C",
"dX c #66412F",
"fX c #79462B",
"gX c #6A453D",
"hX c #684636",
"jX c #734334",
"kX c #7F463D",
"lX c #743842",
"zX c #6B4242",
"xX c #654844",
"cX c #704242",
"vX c #79655A",
"bX c #882E2A",
"nX c #8E2921",
"mX c #86332A",
"MX c #843932",
"NX c #96332D",
"BX c #894535",
"VX c #8E4D46",
"CX c #A04E43",
"ZX c #A15150",
"AX c #B54C49",
"SX c #8F6149",
"DX c #916342",
"FX c #906B5B",
"GX c #AD6453",
/* pixels */
"^ R < h  ...j Z [ } S S G F R , - A g J .Xm.0.j.Y j f - V Z C M K ' h ; = = = = o C L H H D S f < . * Z h s C C 7 {.H 8 9 g.eXc.",
"W + [ K H.d h j [ } D C A Z < - < Z 7 Y zXlX XY j h Z Z ] G %.U g d j h ` T ; ` * C U H V D Z V Z < ' ,.G h f f C 2.A g g i `.p ",
"* C J H.r.=X..k O.U A D P H Z - R R - A $X_.c g j ` ` E < * V N v j._.H.Y 0 X A * Z ] Z Z 3 3 < - f G G A f f * ` [ % ` ' * ;.G ",
"C N 6 u.8.5Xu.z ].L H H H G Z , + ~ ` Z A g g ..Z ` E E < 3 G o.G.`.`.`. XJ q 0 f Z ] Q Q 3 , Z A O.O.C A f h F Z , @ - E - ] ` ",
"C {.gX8 y d.bXA.0XB.g.K 3 ! , E = Z Z A O.Y K j h E R R ~ , < G +.Y q i  X:Xx.9 C V < 3 3 Z S D H `.z.i g g s f Z h * * - - F < ",
"> aXvXF.i.d.NXAXbXe.y. .E ! W W ` Z h g K O.O.U ` h ` { { Z V > Z h 0 7 J `.^.I C S S Z F V S P u `.z.i J Y K C A A C S S o.;.[ ",
"F F ( -XL.9.9.GXMXp.n A - { W W E E Z h H O.*X2XC g o.O.'._.[.>X- ` Z g q 9 J [.H M f S A D C H c XXH.b O.$X<.O.C H &.Y *.<._.|.",
"! { % s R.Q.p.W.BX9.n j * { R Q ` '  .U K Y O.H K H K P H J ^.*X5.E & V U N H }.N q N D C S V C g ]...X g ..K C C H Y _.&.&.P %.",
"W R ~ ) $ S.mXnXbX9.t  .` ~ Z Z Y G.G.Y L Y Y Y U U A f 0 C A C A [ h G S U C Y q H N D G ] < Z A b j h | ` * $ Z 0 V D D D G Z ",
", - { % . i.BXCXMXyXy.7 h h i z.].G.Y H L _.O.o.A G G G Z A G A A Z f } ' * f {.U N i C G Z E , b c h s ' ` - h h G ,.A f F -.Q ",
"&.q g G.T.sXT.k l -X].L 0.w.N.4X..' h - ' } } F - Z G G C K K U h F ` < E % Z o.I 9 i L C C ` G G.x.L q g Z h Z f A o.G Z 3 { =.",
"B ^.1X=Xn d ) % $ b b =X).f.bXf.7 % ` | { E F E F ' ' Z f V o.+.G ' ` # ` E Z X {.L z.[.H g A g  X8X XJ g A A C C K C A G < , ! ",
"&.P H H b K  .j A 7 7 1X8XN.mX0Xv j  .o.' ] { ;.E F ] Z < < | +.1.h - - +.- f j Y L }.eX`.L _.z.N.@X(.I H K g q C [.`.L g j - - ",
"D M 0 N A U j f # D w /. Xe s.cXXXG.P j G ' ;.1.< Z | ;.[ ` [ }  .A C g C g K U 0 q J.*XJ.z.`.(.a B.l.H K A f g g 3XlXI q C V * ",
"=.Q M o C V Z 3 ;.F o c F.l 8 x U.z.L K [ A G [ G U ,.<.O.o.U P 8 z.g.p r.x.j.c j  .@.+.j d g 8 u D M * E - % Z 0 1X1Xc i K A h ",
"5 2 F D U A 3 -.-.& G U g ..@.j b K G.#XO.U D G {.4.<.<.O.U j K L l.J oX9X5Xv d s A ' - h / j d P K s f Z , ; < o K q 6 c H l O.",
"< S G o.[ Z Z ] F F F G G [ G ' j o.K  .@.#X>X<.'.o.U 4.' :.- F A ..' j I.a.d s j U A < = T k d m y z K.b  .- - Z h C d F.t q.n.",
"f C A G A > * Z Z F [ [ ;.G A S ` +.' ' U ..'.o.o.O.3.' ` ;.Q Z V A ` k 6XQ.S.X.8 g C V E E s 8 t.qXI.k.v h $ [ - Z S o K y.N.q.",
"K A A A A f V Z * V G [ %.[ D V A +.' A A K <.Y _.O.>XA [ Z F > N N q v 6XC.b.P..X X[.:X3X2X].K.9XI.n K X * ;.4 3 3 3 o &._._.Y ",
"Y U P C A D A Z V Z G G D S V f A +.A C C U <.O.'.P 2.o.<.A f g P N c y M.q.r.k.(.z.z.}.>X'.j.y.yX0.8 A * S ;.  Q 2 1 %.|.&.$.;.",
"Y Y U H C U G C 4.,.G G D V V 0 A o.C C U o.<.K P g g G._.{.H K G < C j _ 8 d L j h 0 V Z * X 7 M.M.H.7 h ` O ] : $.P 4.*.S 4 -.",
"Y _.<.U K o.o.G U G D V V V C V A G g C U U o.g g C H Y Y *XY g 3 4 F h ' $ b J.' F F Z < - - x r n.Q.t s h % A N ^.^.Y D -.< , ",
"H <._.U U U U D 0 o V f > C S S S A V C A Z U V g K O.Y H z.J H F < [ Z Z f Y O.* f g f - * f c 8.V.E.L.F.d _ 7 XX+Xg.J f } E < ",
"C Y <.C f A C X V V Z F S 1 > > V G S Z Z V G A Z C '.Y Y 8 J _.;.] ,.V V s L c $ V L J G [ U c i.BXW.fXSX6 8 t jXoXt c k ` % / ",
"A A A G G G Z Z S Z Z Z > > > > V S > Z F F ` ` Z Z C o.O.O.Y H U D G A C &./.J g g B.c.C V H p 6XD.i.R.SXQ.!.jXjXz d d K d h ~ ",
"Z A G [ [ ' Z Z Z F Z Z < 3 4 < 3 S F ] ] F F Z Z f f A A K H g D C S S N Y ^.H j c .XyX2.* q 0.y.i.t y.5Xp.v.s.hXb j j O.C Z ` ",
"Z F ` [ [ [ F F Z Z F 3 S < < 3 3 Z ] ] ] ] Z < ' F Z f V g A f f > , Q S U U Z ` j 8XgX1.; C D s A C c n y u.u ,XZ G ' 4.[ F [ ",
"` ` ] [ [ ' G Z > V < Z < > 3 < < 3 F ] ] S > Z ' ' F Z Z Z Z Z C Z W W %.%.[ - ` k k.H.h E [ V S ] ,.U H H O.b O.s A ' :.[ $.$.",
"| ' ` ' [ [ Z h * > V V > S > < - - < Z Z Z S A G S Z S Z < Z Z A G Q -.,.%.F Z j d z y.j [ ,.S -.#.$.%.S A o.2.G.c O.G ;.3 D G ",
"[ ] ] ' [ [ G f f V V V S V V Z > < - Z G A G G A A S Z Z 3 Q S U o.[ -.%.%.Z Z c t y.;XJ.K A %.>.#.S S < Z ` $XJ.v z.H K A Y U ",
"| ` F [ ,.,.G D M V V V V C C S Z - Z A [ U U H G D D Z Z 3 Q ] U O.G F %.%.Z ' v y.S.T.;XY C ,.D S 4 ` - / k pXtXY.I.t.u.j.O...",
"' K A  .O.O.U K f V N C C V > S Z f f C o.O.U V D A Z S > 3 Q ] o.O.[ S ;.G Z 1.l G.L j K.G.D G N V - h k  .d hXFXhXqXY.P.U.J.b ",
"z y.t U.XXH.L q Z & A %.P U ' , < f A U O.U G * Z V : M S Z 3 < ` h } h ] G 1.< * 0 A o.K A U D f s f g H g.OXzXc b b H Y O.#X#X",
"qXjXY.u.y h.H.O.Z # S G P D [ < Z V O._.H g h F - Z G C 0 * < ` ` Z ' [ < | | Z > * S F D S D S C f P Y Y J z.OX_.&.U U U ' G F ",
"Q.qXy.l e L ].'.' * * C D D D < A C l.`.z.H H A f C P P q 0 S [ ' ' A 1.f F Z ] < > < F Z S S S C K U O.+.A A K Y I H H C ' ` | ",
"Q.u.6 d d j q q 2.G > V C C Z f K q J /./.l.U o.o.G H H U &.[ G 2.o.A +.G ' F [ ] > > F F F ;.F U C Z ' ' Z V f _.Y H i C G ` ` ",
"0Xq.8 * Z h 0 q 2.%.V f C H A C s g Y [.L q A 1.1.G f C <.3.1.[ 2.Y O.o.#X} [ ' S < < F F -.;.;.] V > f V V V f 2...A A K  .A j ",
"f.0.U # 3 | K K <.o.S 0 H P C A V f Y O.H f G ` < Z f C D G ] ] U K O.U >X+.Z > < & 4 ] F =.;.-.F < > Z Z Z f s h h h A ' K K K ",
").h.O.= E E f o U U C q L P C G Z A C K C A ` ; ; = V V V h 3 E A K H A ,.U V * Z < F ;.Q F F 3 3 < < Z A A C f ' | | A j c v J ",
"lXl.G = { ] V A A o.H q J L g j h A O.L q C ' < ] Z A A U o.` Z [ {.A A A } Z F F 3 ;.:.F S Z < 4 3 > S A A Z f ' A j j j G.*XrX",
"@X|.A F < ' - Z * o.H u g.l.g A g L [. Xl.H C A Z Z b C ^.C A f A [ o.Z Z } 1.' F F F Z S V C D S S > > - - h h C G.Y t c ].*X].",
"P <.%.V C U G V . o.z.x.tX:X' A b z.+XeX/.L K f A g c z./.q C A Z F [ F Z 1.5.,.F Z G D C D A D D D > Z Z Z F j K ].=X X].]._.H ",
"M D ,.o H q K 0 | ' q r.@X@Xo.+.'.Y g.J v L U h f f U xX%XH g Z - Z G Z < ;.3.;.V Z A G U G C D D V > V V h j 0 c F.G.j.L Y H f ",
"$.* Z U L u J K A h 8 J  X/.A Z C j t c c g h # - * o.xX}.A V * Z Z Z < > ] ;.F V V S G U U U D > > V Z C U L b G.K c j H C Y U ",
"] % * 2.z.(.m.`.K h j Y z.c j A s g P H 0 s - - T = - 3.f f ` * [ A S f > Z ' Z F Z Z A U U U F -.=.F V c c v g ]...j ' [ G C C ",
"& < Z O.p eX4Xq.c s h j g 7 g o.A j d c c A } { E - * A 7 g [ * ,.D D A V Z G F F G F G G ' [ ' 4 Q ] o.'.3XzXgXJ. .f h A Z S S ",
"& - ` C u (.0Xf.y k / }  .C g q q 8 J `.].]. .. * A C c P H  .f <.G D P D S A S Z ` ' ` F G ` ] 3 { F < h K K l H...c C Z ] ] =.",
"3 & G f p N.uX).+XX.| ' ' @.G.G.b H.8X+Xz.g Z Z Z G A 0 L q O.K [.H N H C f A Z Z Z F Z < - - Z < 3 ] - Z |  .b L Y L K V - , R ",
"* S A C u c.@Xz.v G.].2.#XpXhXpXX.S.tXe C S 2 #.#.1 $.S w H &XK O.Y O.K C A A F Z ] Z < ` ] 3 f A F F ` ` ] [ o.i L x.j.K b A / ",
"G S M N N _._.6 c Y K d d x k $ k l 5X.X0 ] 3 2 4 #.: M O.O.b b K K H C A F G ' * * Z [ F * h [ A D F ] ] | G j G.x.j.r.v n  .j ",
"S S S Z V A D 7 L P b b g j j h s 8 0.7Xt j f h C g 0 C _.U j C A G Z V Z Z Z G ' Z ' [ f s A f Z ` ` ' [ } ' A K Y j.H.].H...c ",
"s > G [ F Z f C _.Y H H U j f - j 7 r.c.tXy x 8 t e .X].K C ,.S G Z Z Z Z Z Z Z Z > A h D %X2XC Z Z Q [ } 1.o.U {._.O.L J H b g ",
"F Z Z F +.G V C U C 0 D A S V Z V &.p VXL.kXD.z y 8.wXXXC A >.: 4 < > < ] ] ] ' G f A C P 2X3XK ] E ` ] [ ,.o.U <.K C g g g c H ",
"/ ' j j H q q C U S * F G F G ,.G M rX7Xp.wXDXm E.~.MXe j S 3 $.< 4 < < Z ] F F o.h A K b H J h { R E F A A G U Z Z G G K C H I ",
"/ | _ t r.r.g.`.O.} Q Q > : M M U C =X0.9.wXfXS.!.!.MXe s 4 3 $.] < < < Z F Z * * * g A j 0 g C E ~ Z A C C H A $X1.] < > 0 C P ",
"@.F.z y M.0X9X=Xj < R R 4 V D P C C L e 6XQ.7 x x t jXP.Z < $.: 3 > > S F F Z h C 1...A C g j f - < ] A C C H U > < < Q ] Z D P ",
"l U.L.E.VXZXZXy.d * - = 3 Z C N U j c p oXr.s k j c p L ` = > Z S > * S V V Z A A o.+.1.G h h ' [ * G H N _._.C * 3 { , - < S V ",
"i.L.d.e.e.n.VXtXL j $ # * h V g j j b t x.q < E - A H H Z 3 < A 0 V C G C V V A Z A ' ' ` Z ` Z } [ U C I _.H V Z < , , 3 Z > f ",
"mXW.e.p.w.a.jXoXU.L 8 q A A Z h ( j Y K H f Q ! < F D M - 3 ` f A C C C A G U o.V f * Z ` ] ` 3 F +.%.H [.}.C H V f > < < f f Z ",
"MXW.w.u.z F.F.t x.y.v z.O.' < - / j H.`.H V -.W -.S S M Z ' A f V g C A U U A f Z V * V F | ] Z Z A o.,.}.>XH C 0 f Z h f h G +.",
"C.6Xy t d ( s d i p g.z.O.A , = / h H.XXc Z { 4 -.S M D ,.G A C f  .$X,X%XO.A f V Z V Z 3 F F ] G f G [ A <.A 7 q c g q g O.G.O.",
"t.oXL s | | % A q B J J H V < E ` $ v  Xq h ' Z C w 0 A Y P S A j 2.iXiX<.A A A A C Z Z Z Z 3 F ' # Z Z # ` o.K H u 6 a j.H.G.b ",
"g j j & } ~ & h f H I H N Z ` ] 3 f p .Xb j k  .v v P L P N V V Z |  .h $ . s V A S Z S S S > Z S - , & & E ' <.J e 0.m.5Xm.v t ",
"g f :.` ! = E ] S U Y N 0 S F < E Z x.tXj.j s _ j.XX*X_.J H S Z ' A h h ' o.A 0 A C D A D S S S > 3 E = R = . K j.g.(.yXyXk.r v "
};
